<?xml version="1.0" encoding="utf-8"?>
<!-- Generator: Adobe Illustrator 26.0.0, SVG Export Plug-In . SVG Version: 6.00 Build 0)  -->
<svg version="1.1" id="图层_1" xmlns="http://www.w3.org/2000/svg" xmlns:xlink="http://www.w3.org/1999/xlink" x="0px" y="0px"
	 viewBox="0 0 576 576" style="enable-background:new 0 0 576 576;" xml:space="preserve">
<style type="text/css">
	.st0{fill:#FFFFFF;}
	.st1{clip-path:url(#SVGID_00000057148288893204408660000011875654245238726803_);}
	.st2{stroke:#000000;stroke-width:0.8;stroke-linejoin:round;}
	.st3{fill:none;stroke:#000000;stroke-width:0.8;stroke-linecap:square;}
</style>
<g id="figure_1">
	<g id="patch_1">
		<path class="st0" d="M10,576h576V0H10V576z"/>
	</g>
	<g id="axes_1">
		<g id="patch_2">
			<path class="st0" d="M91,476.1h387.4V88.7H91V476.1z"/>
		</g>
		<g>
			<defs>
				<rect id="SVGID_1_" x="91" y="88.7" width="387.4" height="387.4"/>
			</defs>
			<clipPath id="SVGID_00000097466864361412671280000000481523815858508429_">
				<use xlink:href="#SVGID_1_"  style="overflow:visible;"/>
			</clipPath>
			<g style="clip-path:url(#SVGID_00000097466864361412671280000000481523815858508429_);">
				
					<image style="overflow:visible;enable-background:new    ;" width="539" height="539" id="imagea7da9c9eeb" xlink:href="710A454.png"  transform="matrix(0.72 0 0 -0.72 90.98 476.1212)">
				</image>
			</g>
		</g>
		<g id="matplotlib.axis_1">
			<g id="xtick_1">
				<g id="line2d_1">
					<g>
						<g>
							<path id="mc3de81f802" class="st2" d="M187.8,476.1v3.5"/>
						</g>
					</g>
				</g>
				<g id="text_1">
					<g transform="translate(163.442442 519.830354) rotate(-45) scale(0.09 -0.09)">
						<g>
							<path id="DejaVuSans-43" d="M143-11.3v-10.4c-3.3,3.1-6.9,5.4-10.6,6.9c-3.8,1.5-7.8,2.3-12,2.3c-8.3,0-14.7-2.5-19.1-7.6
								s-6.6-12.5-6.6-22.1c0-9.6,2.2-17,6.6-22s10.8-7.6,19.1-7.6c4.2,0,8.2,0.8,12,2.3s7.3,3.8,10.6,6.9V-73
								c-3.4-2.3-7.1-4.1-11-5.3c-3.9-1.2-7.9-1.7-12.2-1.7c-11,0-19.7,3.4-26.1,10.1c-6.3,6.8-9.5,16-9.5,27.7
								c0,11.7,3.2,21,9.5,27.7c6.4,6.8,15.1,10.1,26.1,10.1c4.4,0,8.5-0.6,12.3-1.7C136-7.2,139.6-9,143-11.3z"/>
						</g>
						<g>
							<path id="DejaVuSans-54" d="M148.1-5.7h61.7V-14h-25.9v-64.6H174V-14h-25.9V-5.7z"/>
						</g>
						<g>
							<path id="DejaVuSans-5f" d="M260.5-95.2v-7h-52v7H260.5z"/>
						</g>
						<g>
							<path id="DejaVuSans-43_00000031169949219147359090000017628066049514632847_" d="M323.9-11.3v-10.4
								c-3.3,3.1-6.9,5.4-10.6,6.9c-3.8,1.5-7.8,2.3-12,2.3c-8.3,0-14.7-2.5-19.1-7.6c-4.4-5.1-6.6-12.5-6.6-22.1
								c0-9.6,2.2-17,6.6-22c4.4-5.1,10.8-7.6,19.1-7.6c4.2,0,8.2,0.8,12,2.3c3.8,1.5,7.3,3.8,10.6,6.9V-73c-3.4-2.3-7.1-4.1-11-5.3
								c-3.9-1.2-7.9-1.7-12.2-1.7c-11,0-19.7,3.4-26.1,10.1c-6.3,6.8-9.5,16-9.5,27.7c0,11.7,3.2,21,9.5,27.7
								c6.4,6.8,15.1,10.1,26.1,10.1c4.4,0,8.5-0.6,12.3-1.7C316.9-7.2,320.5-9,323.9-11.3z"/>
						</g>
						<g>
							<path id="DejaVuSans-4f" d="M368.7-12.3c-7.2,0-12.9-2.7-17.1-8c-4.2-5.3-6.3-12.6-6.3-21.8c0-9.2,2.1-16.4,6.3-21.8
								c4.2-5.3,9.9-8,17.1-8c7.2,0,12.8,2.7,17,8c4.2,5.3,6.3,12.6,6.3,21.8c0,9.2-2.1,16.5-6.3,21.8
								C381.5-15,375.9-12.3,368.7-12.3z M368.7-4.3c10.2,0,18.4-3.4,24.5-10.3c6.1-6.9,9.2-16,9.2-27.6c0-11.5-3.1-20.7-9.2-27.5
								c-6.1-6.9-14.3-10.3-24.5-10.3c-10.2,0-18.4,3.4-24.6,10.2c-6.1,6.8-9.2,16-9.2,27.5s3.1,20.7,9.2,27.6
								C350.3-7.8,358.5-4.3,368.7-4.3z"/>
						</g>
						<g>
							<path id="DejaVuSans-56" d="M434.9-78.6L407-5.7h10.3L440.4-67l23.1,61.4h10.2l-27.8-72.9H434.9z"/>
						</g>
						<g>
							<path id="DejaVuSans-49" d="M484.5-5.7h9.9v-72.9h-9.9V-5.7z"/>
						</g>
						<g>
							<path id="DejaVuSans-44" d="M523.8-13.8v-56.7h11.9c10.1,0,17.4,2.3,22.1,6.8c4.7,4.6,7,11.8,7,21.6c0,9.8-2.3,16.9-7,21.5
								c-4.7,4.5-12,6.8-22.1,6.8H523.8z M514-5.7h20.3c14.1,0,24.5-2.9,31.1-8.8c6.6-5.9,9.9-15.1,9.9-27.6
								c0-12.6-3.3-21.8-10-27.7c-6.6-5.9-17-8.8-31-8.8H514V-5.7z"/>
						</g>
					</g>
				</g>
			</g>
			<g id="xtick_2">
				<g id="line2d_2">
					<g>
						<g>
							<path id="mc3de81f802_00000096771717509882379190000009498264439971469715_" class="st2" d="M381.5,476.1v3.5"/>
						</g>
					</g>
				</g>
				<g id="text_2">
					<g transform="translate(350.786369 532.518501) rotate(-45) scale(0.09 -0.09)">
						<g>
							<path id="DejaVuSans-43_00000088112379059586395170000010122592388598120865_" d="M143-11.3v-10.4c-3.3,3.1-6.9,5.4-10.6,6.9
								c-3.8,1.5-7.8,2.3-12,2.3c-8.3,0-14.7-2.5-19.1-7.6s-6.6-12.5-6.6-22.1c0-9.6,2.2-17,6.6-22s10.8-7.6,19.1-7.6
								c4.2,0,8.2,0.8,12,2.3c3.8,1.5,7.3,3.8,10.6,6.9V-73c-3.4-2.3-7.1-4.1-11-5.3c-3.9-1.2-7.9-1.7-12.2-1.7
								c-11,0-19.7,3.4-26.1,10.1c-6.3,6.8-9.5,16-9.5,27.7c0,11.7,3.2,21,9.5,27.7c6.4,6.8,15.1,10.1,26.1,10.1
								c4.4,0,8.5-0.6,12.3-1.7C136-7.2,139.6-9,143-11.3z"/>
						</g>
						<g>
							<path id="DejaVuSans-54_00000139287831476348774640000005410533006013003195_" d="M148.1-5.7h61.7V-14h-25.9v-64.6H174V-14
								h-25.9V-5.7z"/>
						</g>
						<g>
							<path id="DejaVuSans-5f_00000127018396046781003650000004081970417047558561_" d="M260.5-95.2v-7h-52v7H260.5z"/>
						</g>
						<g>
							<path id="DejaVuSans-4e" d="M269.3-5.7h13.3l32.3-61v61h9.6v-72.9h-13.3l-32.3,61v-61h-9.6V-5.7z"/>
						</g>
						<g>
							<path id="DejaVuSans-6f" d="M364.9-30.2c-4.8,0-8.6-1.9-11.4-5.6c-2.8-3.8-4.2-8.9-4.2-15.5s1.4-11.7,4.2-15.5
								c2.8-3.8,6.6-5.6,11.5-5.6c4.8,0,8.6,1.9,11.4,5.7c2.8,3.8,4.2,8.9,4.2,15.4c0,6.5-1.4,11.6-4.2,15.4
								C373.5-32.1,369.7-30.2,364.9-30.2z M364.9-22.6c7.8,0,13.9-2.5,18.4-7.6c4.5-5.1,6.7-12.1,6.7-21.1c0-8.9-2.2-16-6.7-21.1
								c-4.5-5.1-10.6-7.6-18.4-7.6c-7.8,0-14,2.5-18.4,7.6c-4.4,5.1-6.7,12.1-6.7,21.1c0,9,2.2,16,6.7,21.1
								C350.9-25.1,357-22.6,364.9-22.6z"/>
						</g>
						<g>
							<path id="DejaVuSans-6e" d="M450.3-45.6v-33h-9v32.7c0,5.2-1,9-3,11.6c-2,2.6-5,3.9-9.1,3.9c-4.9,0-8.7-1.5-11.5-4.6
								c-2.8-3.1-4.2-7.3-4.2-12.6v-30.9h-9v54.7h9v-8.5c2.2,3.3,4.7,5.7,7.6,7.4c2.9,1.6,6.3,2.4,10.1,2.4c6.3,0,11-1.9,14.2-5.8
								C448.7-32.3,450.3-38,450.3-45.6z"/>
						</g>
						<g>
							<path id="DejaVuSans-43_00000094582128425591229440000003288173752475662744_" d="M523.2-11.3v-10.4
								c-3.3,3.1-6.9,5.4-10.6,6.9c-3.8,1.5-7.8,2.3-12,2.3c-8.3,0-14.7-2.5-19.1-7.6s-6.6-12.5-6.6-22.1c0-9.6,2.2-17,6.6-22
								s10.8-7.6,19.1-7.6c4.2,0,8.2,0.8,12,2.3c3.8,1.5,7.3,3.8,10.6,6.9V-73c-3.4-2.3-7.1-4.1-11-5.3c-3.9-1.2-7.9-1.7-12.2-1.7
								c-11,0-19.7,3.4-26.1,10.1c-6.3,6.8-9.5,16-9.5,27.7c0,11.7,3.2,21,9.5,27.7c6.4,6.8,15.1,10.1,26.1,10.1
								c4.4,0,8.5-0.6,12.3-1.7C516.2-7.2,519.9-9,523.2-11.3z"/>
						</g>
						<g>
							<path id="DejaVuSans-4f_00000093882772850066233330000012288368760247620997_" d="M568.1-12.3c-7.2,0-12.9-2.7-17.1-8
								c-4.2-5.3-6.3-12.6-6.3-21.8c0-9.2,2.1-16.4,6.3-21.8c4.2-5.3,9.9-8,17.1-8c7.2,0,12.8,2.7,17,8c4.2,5.3,6.3,12.6,6.3,21.8
								c0,9.2-2.1,16.5-6.3,21.8C580.9-15,575.2-12.3,568.1-12.3z M568.1-4.3c10.2,0,18.4-3.4,24.5-10.3c6.1-6.9,9.2-16,9.2-27.6
								c0-11.5-3.1-20.7-9.2-27.5c-6.1-6.9-14.3-10.3-24.5-10.3c-10.2,0-18.4,3.4-24.6,10.2c-6.1,6.8-9.2,16-9.2,27.5
								s3.1,20.7,9.2,27.6C549.6-7.8,557.8-4.3,568.1-4.3z"/>
						</g>
						<g>
							<path id="DejaVuSans-56_00000178885186965646203330000016422208498867769775_" d="M634.2-78.6L606.4-5.7h10.3L639.8-67
								L663-5.7h10.2l-27.8-72.9H634.2z"/>
						</g>
						<g>
							<path id="DejaVuSans-49_00000155856399322062530750000013495595263702189957_" d="M683.8-5.7h9.9v-72.9h-9.9V-5.7z"/>
						</g>
						<g>
							<path id="DejaVuSans-44_00000174560938088239290730000001870819745957073324_" d="M723.2-13.8v-56.7h11.9
								c10.1,0,17.4,2.3,22.1,6.8c4.7,4.6,7,11.8,7,21.6c0,9.8-2.3,16.9-7,21.5s-12,6.8-22.1,6.8H723.2z M713.3-5.7h20.3
								c14.1,0,24.5-2.9,31.1-8.8c6.6-5.9,9.9-15.1,9.9-27.6c0-12.6-3.3-21.8-10-27.7c-6.6-5.9-17-8.8-31-8.8h-20.3V-5.7z"/>
						</g>
					</g>
				</g>
			</g>
			<g id="text_3">
				<g transform="translate(237.515656 545.617442) scale(0.1 -0.1)">
					<g>
						<path id="DejaVuSans-50" d="M119.7,64.8V37.4h12.4c4.6,0,8.1,1.2,10.6,3.6c2.5,2.4,3.8,5.8,3.8,10.2c0,4.4-1.3,7.7-3.8,10.1
							c-2.5,2.4-6,3.6-10.6,3.6H119.7z M109.8,72.9h22.3c8.2,0,14.4-1.8,18.5-5.5c4.2-3.7,6.3-9.1,6.3-16.2c0-7.2-2.1-12.6-6.3-16.3
							c-4.2-3.7-10.4-5.5-18.5-5.5h-12.4V0h-9.9V72.9z"/>
					</g>
					<g>
						<path id="DejaVuSans-72" d="M199.7,46.3c-1,0.6-2.1,1-3.3,1.3c-1.2,0.3-2.5,0.4-3.9,0.4c-5.1,0-9-1.7-11.7-5s-4.1-8-4.1-14.2
							V0h-9v54.7h9v-8.5c1.9,3.3,4.4,5.8,7.4,7.4c3,1.6,6.7,2.4,11,2.4c0.6,0,1.3,0,2-0.1c0.8-0.1,1.6-0.2,2.5-0.4L199.7,46.3z"/>
					</g>
					<g>
						<path id="DejaVuSans-65" d="M253.6,29.6v-4.4h-41.3c0.4-6.2,2.3-10.9,5.6-14.1c3.3-3.2,8-4.9,13.9-4.9c3.4,0,6.8,0.4,10,1.3
							s6.5,2.1,9.7,3.8V2.8c-3.2-1.4-6.5-2.4-9.9-3.1s-6.8-1.1-10.3-1.1c-8.7,0-15.6,2.5-20.7,7.6c-5.1,5.1-7.6,12-7.6,20.6
							c0,8.9,2.4,16,7.2,21.3c4.8,5.3,11.4,7.9,19.6,7.9c7.4,0,13.2-2.4,17.5-7.1C251.5,44.2,253.6,37.7,253.6,29.6z M244.6,32.2
							c-0.1,4.9-1.4,8.8-4.1,11.8c-2.7,2.9-6.2,4.4-10.7,4.4c-5,0-9-1.4-12-4.2c-3-2.8-4.7-6.8-5.2-12L244.6,32.2z"/>
					</g>
					<g>
						<path id="DejaVuSans-64" d="M304.3,46.4V76h9V0h-9v8.2c-1.9-3.2-4.3-5.7-7.2-7.2c-2.9-1.6-6.3-2.4-10.4-2.4
							c-6.6,0-12,2.6-16.1,7.9c-4.1,5.3-6.2,12.2-6.2,20.8s2.1,15.5,6.2,20.8c4.2,5.3,9.5,7.9,16.1,7.9c4,0,7.5-0.8,10.4-2.4
							C300.1,52.1,302.5,49.6,304.3,46.4z M273.7,27.3c0-6.6,1.4-11.8,4.1-15.5s6.5-5.6,11.2-5.6s8.5,1.9,11.2,5.6
							c2.7,3.8,4.1,8.9,4.1,15.5s-1.4,11.8-4.1,15.5c-2.7,3.8-6.5,5.6-11.2,5.6s-8.5-1.9-11.2-5.6S273.7,33.9,273.7,27.3z"/>
					</g>
					<g>
						<path id="DejaVuSans-69" d="M331.8,54.7h9V0h-9V54.7z M331.8,76h9V64.6h-9V76z"/>
					</g>
					<g>
						<path id="DejaVuSans-63" d="M399,52.6v-8.4c-2.5,1.4-5.1,2.5-7.6,3.2s-5.1,1-7.7,1c-5.8,0-10.4-1.8-13.6-5.5
							c-3.2-3.7-4.8-8.9-4.8-15.5s1.6-11.9,4.8-15.6c3.2-3.7,7.8-5.5,13.6-5.5c2.6,0,5.2,0.3,7.7,1s5.1,1.8,7.6,3.2V2.1
							c-2.5-1.2-5.1-2-7.8-2.6c-2.7-0.6-5.5-0.9-8.6-0.9c-8.2,0-14.8,2.6-19.6,7.8c-4.8,5.2-7.3,12.2-7.3,21c0,8.9,2.4,15.9,7.3,21
							c4.9,5.1,11.6,7.7,20.2,7.7c2.8,0,5.5-0.3,8.1-0.9C393.9,54.6,396.5,53.7,399,52.6z"/>
					</g>
					<g>
						<path id="DejaVuSans-74" d="M423.5,70.2V54.7H442v-7h-18.5V18c0-4.5,0.6-7.3,1.8-8.6s3.7-1.9,7.5-1.9h9.2V0h-9.2
							c-6.9,0-11.7,1.3-14.4,3.9c-2.6,2.6-4,7.3-4,14.1v29.7h-6.6v7h6.6v15.5H423.5z"/>
					</g>
					<g>
						<path id="DejaVuSans-65_00000015333562941800794470000000416153367012400307_" d="M500.6,29.6v-4.4h-41.3
							c0.4-6.2,2.3-10.9,5.6-14.1s8-4.9,13.9-4.9c3.4,0,6.8,0.4,10,1.3s6.5,2.1,9.7,3.8V2.8c-3.2-1.4-6.5-2.4-9.9-3.1
							s-6.8-1.1-10.3-1.1c-8.7,0-15.6,2.5-20.7,7.6c-5.1,5.1-7.6,12-7.6,20.6c0,8.9,2.4,16,7.2,21.3c4.8,5.3,11.4,7.9,19.6,7.9
							c7.4,0,13.2-2.4,17.5-7.1C498.5,44.2,500.6,37.7,500.6,29.6z M491.6,32.2c-0.1,4.9-1.4,8.8-4.1,11.8
							c-2.7,2.9-6.2,4.4-10.7,4.4c-5,0-9-1.4-12-4.2s-4.7-6.8-5.2-12L491.6,32.2z"/>
					</g>
					<g>
						<path id="DejaVuSans-64_00000103234006810126499240000007740358745819223941_" d="M551.3,46.4V76h9V0h-9v8.2
							C549.4,5,547,2.5,544.2,1c-2.9-1.6-6.3-2.4-10.4-2.4c-6.6,0-12,2.6-16.1,7.9c-4.1,5.3-6.2,12.2-6.2,20.8s2.1,15.5,6.2,20.8
							c4.2,5.3,9.5,7.9,16.1,7.9c4,0,7.5-0.8,10.4-2.4C547,52.1,549.4,49.6,551.3,46.4z M520.7,27.3c0-6.6,1.4-11.8,4.1-15.5
							s6.5-5.6,11.2-5.6s8.5,1.9,11.2,5.6c2.7,3.8,4.1,8.9,4.1,15.5s-1.4,11.8-4.1,15.5c-2.7,3.8-6.5,5.6-11.2,5.6
							s-8.5-1.9-11.2-5.6S520.7,33.9,520.7,27.3z"/>
					</g>
					<g>
						<path id="DejaVuSans-20" d="M569.4,0"/>
					</g>
					<g>
						<path id="DejaVuSans-6c" d="M610.6,76h9V0h-9V76z"/>
					</g>
					<g>
						<path id="DejaVuSans-61" d="M663.2,27.5c-7.3,0-12.3-0.8-15.1-2.5s-4.2-4.5-4.2-8.5c0-3.2,1.1-5.7,3.2-7.6
							c2.1-1.9,5-2.8,8.6-2.8c5,0,9,1.8,12,5.3s4.5,8.2,4.5,14.1v2H663.2z M681.2,31.2V0h-9v8.3c-2.1-3.3-4.6-5.8-7.7-7.3
							s-6.8-2.4-11.2-2.4c-5.6,0-10,1.6-13.4,4.7c-3.3,3.1-5,7.4-5,12.6c0,6.1,2.1,10.8,6.2,13.9c4.1,3.1,10.3,4.7,18.4,4.7h12.6
							v0.9c0,4.1-1.4,7.3-4.1,9.6s-6.5,3.4-11.5,3.4c-3.1,0-6.2-0.4-9.1-1.1c-3-0.8-5.8-1.9-8.5-3.4v8.3c3.3,1.3,6.5,2.2,9.6,2.8
							c3.1,0.6,6.1,1,9,1c7.9,0,13.8-2.1,17.7-6.2C679.2,45.8,681.2,39.5,681.2,31.2z"/>
					</g>
					<g>
						<path id="DejaVuSans-62" d="M738.9,27.3c0,6.6-1.4,11.8-4.1,15.5s-6.5,5.6-11.2,5.6c-4.8,0-8.5-1.9-11.2-5.6
							s-4.1-8.9-4.1-15.5s1.4-11.8,4.1-15.5s6.5-5.6,11.2-5.6c4.8,0,8.5,1.9,11.2,5.6S738.9,20.7,738.9,27.3z M708.3,46.4
							c1.9,3.2,4.3,5.7,7.2,7.2c2.9,1.6,6.3,2.4,10.3,2.4c6.6,0,12-2.6,16.2-7.9c4.2-5.3,6.2-12.2,6.2-20.8s-2.1-15.5-6.2-20.8
							c-4.1-5.3-9.5-7.9-16.2-7.9c-4,0-7.4,0.8-10.3,2.4c-2.9,1.6-5.3,4-7.2,7.2V0h-9v76h9V46.4z"/>
					</g>
					<g>
						<path id="DejaVuSans-65_00000175284503204575973080000011936503874880692670_" d="M809.9,29.6v-4.4h-41.3
							c0.4-6.2,2.3-10.9,5.6-14.1s8-4.9,13.9-4.9c3.4,0,6.8,0.4,10,1.3s6.5,2.1,9.7,3.8V2.8c-3.2-1.4-6.5-2.4-9.9-3.1
							s-6.8-1.1-10.3-1.1c-8.7,0-15.6,2.5-20.7,7.6c-5.1,5.1-7.6,12-7.6,20.6c0,8.9,2.4,16,7.2,21.3c4.8,5.3,11.4,7.9,19.6,7.9
							c7.4,0,13.2-2.4,17.5-7.1C807.8,44.2,809.9,37.7,809.9,29.6z M800.9,32.2c-0.1,4.9-1.4,8.8-4.1,11.8
							c-2.7,2.9-6.2,4.4-10.7,4.4c-5,0-9-1.4-12-4.2s-4.7-6.8-5.2-12L800.9,32.2z"/>
					</g>
					<g>
						<path id="DejaVuSans-6c_00000173128775588946361720000006916366354655176595_" d="M824.7,76h9V0h-9V76z"/>
					</g>
				</g>
			</g>
		</g>
		<g id="matplotlib.axis_2">
			<g id="ytick_1">
				<g id="line2d_3">
					<g>
						<g>
							<path id="med78bb4f23" class="st2" d="M91,185.6h-3.5"/>
						</g>
					</g>
				</g>
				<g id="text_4">
					<g transform="translate(28.745156 188.929081) scale(0.09 -0.09)">
						<g>
							<path id="DejaVuSans-43_00000026873256871277313200000004859692895916534660_" d="M175.5,67.3V56.9
								c-3.3,3.1-6.9,5.4-10.6,6.9c-3.8,1.5-7.8,2.3-12,2.3c-8.3,0-14.7-2.5-19.1-7.6s-6.6-12.5-6.6-22.1c0-9.6,2.2-17,6.6-22
								s10.8-7.6,19.1-7.6c4.2,0,8.2,0.8,12,2.3s7.3,3.8,10.6,6.9V5.6c-3.4-2.3-7.1-4.1-11-5.3c-3.9-1.2-7.9-1.8-12.2-1.8
								c-11,0-19.7,3.4-26.1,10.1c-6.3,6.8-9.5,16-9.5,27.7c0,11.7,3.2,21,9.5,27.7c6.4,6.8,15.1,10.1,26.1,10.1
								c4.4,0,8.5-0.6,12.3-1.7C168.5,71.3,172.1,69.6,175.5,67.3z"/>
						</g>
						<g>
							<path id="DejaVuSans-54_00000127746728765675438560000009275525534200447394_" d="M180.6,72.9h61.7v-8.3h-25.9V0h-9.9v64.6
								h-25.9V72.9z"/>
						</g>
						<g>
							<path id="DejaVuSans-5f_00000178906371561157986370000001812539481950684807_" d="M293-16.6v-7h-52v7H293z"/>
						</g>
						<g>
							<path id="DejaVuSans-43_00000063626148624385461670000006040391293896789164_" d="M356.4,67.3V56.9
								c-3.3,3.1-6.9,5.4-10.6,6.9c-3.8,1.5-7.8,2.3-12,2.3c-8.3,0-14.7-2.5-19.1-7.6c-4.4-5.1-6.6-12.5-6.6-22.1
								c0-9.6,2.2-17,6.6-22c4.4-5.1,10.8-7.6,19.1-7.6c4.2,0,8.2,0.8,12,2.3c3.8,1.5,7.3,3.8,10.6,6.9V5.6c-3.4-2.3-7.1-4.1-11-5.3
								c-3.9-1.2-7.9-1.8-12.2-1.8c-11,0-19.7,3.4-26.1,10.1c-6.3,6.8-9.5,16-9.5,27.7c0,11.7,3.2,21,9.5,27.7
								c6.4,6.8,15.1,10.1,26.1,10.1c4.4,0,8.5-0.6,12.3-1.7C349.4,71.3,353,69.6,356.4,67.3z"/>
						</g>
						<g>
							<path id="DejaVuSans-4f_00000078734490923666273480000003218922137102495892_" d="M401.2,66.2c-7.2,0-12.9-2.7-17.1-8
								c-4.2-5.3-6.3-12.6-6.3-21.8c0-9.2,2.1-16.4,6.3-21.8c4.2-5.3,9.9-8,17.1-8c7.2,0,12.8,2.7,17,8c4.2,5.3,6.3,12.6,6.3,21.8
								c0,9.2-2.1,16.5-6.3,21.8C414.1,63.5,408.4,66.2,401.2,66.2z M401.2,74.2c10.2,0,18.4-3.4,24.5-10.3c6.1-6.9,9.2-16,9.2-27.6
								c0-11.5-3.1-20.7-9.2-27.5C419.6,2,411.5-1.4,401.2-1.4C391-1.4,382.8,2,376.7,8.8c-6.1,6.8-9.2,16-9.2,27.5
								s3.1,20.7,9.2,27.6C382.8,70.8,391,74.2,401.2,74.2z"/>
						</g>
						<g>
							<path id="DejaVuSans-56_00000106851471897002694840000011459405142673094036_" d="M467.4,0l-27.8,72.9h10.3L473,11.5
								l23.1,61.4h10.2L478.6,0H467.4z"/>
						</g>
						<g>
							<path id="DejaVuSans-49_00000065759524152493511500000001272788205683511170_" d="M517,72.9h9.9V0H517V72.9z"/>
						</g>
						<g>
							<path id="DejaVuSans-44_00000181088006477498111840000007083607763979985588_" d="M556.4,64.8V8.1h11.9
								c10.1,0,17.4,2.3,22.1,6.8c4.7,4.6,7,11.8,7,21.6c0,9.8-2.3,16.9-7,21.5s-12,6.8-22.1,6.8H556.4z M546.5,72.9h20.3
								c14.1,0,24.5-2.9,31.1-8.8c6.6-5.9,9.9-15.1,9.9-27.6c0-12.6-3.3-21.8-10-27.7c-6.6-5.9-17-8.8-31-8.8h-20.3V72.9z"/>
						</g>
					</g>
				</g>
			</g>
			<g id="ytick_2">
				<g id="line2d_4">
					<g>
						<g>
							<path id="med78bb4f23_00000152971892562013705980000005299055040572493474_" class="st2" d="M91,379.3h-3.5"/>
						</g>
					</g>
				</g>
				<g id="text_5">
					<g transform="translate(10.801406 382.617081) scale(0.09 -0.09)">
						<g>
							<path id="DejaVuSans-43_00000016054049543768626760000015203923137099599510_" d="M175.5,67.3V56.9
								c-3.3,3.1-6.9,5.4-10.6,6.9c-3.8,1.5-7.8,2.3-12,2.3c-8.3,0-14.7-2.5-19.1-7.6c-4.4-5.1-6.6-12.5-6.6-22.1
								c0-9.6,2.2-17,6.6-22c4.4-5.1,10.8-7.6,19.1-7.6c4.2,0,8.2,0.8,12,2.3s7.3,3.8,10.6,6.9V5.6c-3.4-2.3-7.1-4.1-11-5.3
								c-3.9-1.2-7.9-1.8-12.2-1.8c-11,0-19.7,3.4-26.1,10.1c-6.3,6.8-9.5,16-9.5,27.7c0,11.7,3.2,21,9.5,27.7
								c6.4,6.8,15.1,10.1,26.1,10.1c4.4,0,8.5-0.6,12.3-1.7C168.5,71.3,172.1,69.6,175.5,67.3z"/>
						</g>
						<g>
							<path id="DejaVuSans-54_00000181800583286908450270000015935580490206150570_" d="M180.6,72.9h61.7v-8.3h-25.9V0h-9.9v64.6
								h-25.9V72.9z"/>
						</g>
						<g>
							<path id="DejaVuSans-5f_00000098183106157838673110000015133758606226493578_" d="M293-16.6v-7h-52v7H293z"/>
						</g>
						<g>
							<path id="DejaVuSans-4e_00000094599452923228378150000016795864256538866857_" d="M301.8,72.9h13.3l32.3-61v61h9.6V0h-13.3
								l-32.3,61V0h-9.6V72.9z"/>
						</g>
						<g>
							<path id="DejaVuSans-6f_00000119827568195478346470000011695923368845384625_" d="M397.4,48.4c-4.8,0-8.6-1.9-11.4-5.6
								c-2.8-3.8-4.2-8.9-4.2-15.5s1.4-11.7,4.2-15.5c2.8-3.8,6.6-5.6,11.5-5.6c4.8,0,8.6,1.9,11.4,5.7c2.8,3.8,4.2,8.9,4.2,15.4
								c0,6.5-1.4,11.6-4.2,15.4C406,46.5,402.2,48.4,397.4,48.4z M397.4,56c7.8,0,13.9-2.5,18.4-7.6c4.5-5.1,6.7-12.1,6.7-21.1
								c0-8.9-2.2-16-6.7-21.1c-4.5-5.1-10.6-7.6-18.4-7.6c-7.8,0-14,2.5-18.4,7.6c-4.4,5.1-6.7,12.1-6.7,21.1c0,9,2.2,16,6.7,21.1
								C383.4,53.5,389.6,56,397.4,56z"/>
						</g>
						<g>
							<path id="DejaVuSans-6e_00000177476851253585537960000007790728629384099988_" d="M482.9,33V0h-9v32.7c0,5.2-1,9-3,11.6
								c-2,2.6-5,3.9-9.1,3.9c-4.9,0-8.7-1.5-11.5-4.6c-2.8-3.1-4.2-7.3-4.2-12.6V0h-9v54.7h9v-8.5c2.2,3.3,4.7,5.8,7.6,7.4
								c2.9,1.6,6.3,2.4,10.1,2.4c6.3,0,11-1.9,14.2-5.8C481.3,46.3,482.9,40.6,482.9,33z"/>
						</g>
						<g>
							<path id="DejaVuSans-43_00000101815279614751733520000003234182711176108956_" d="M555.8,67.3V56.9
								c-3.3,3.1-6.9,5.4-10.6,6.9c-3.8,1.5-7.8,2.3-12,2.3c-8.3,0-14.7-2.5-19.1-7.6c-4.4-5.1-6.6-12.5-6.6-22.1
								c0-9.6,2.2-17,6.6-22c4.4-5.1,10.8-7.6,19.1-7.6c4.2,0,8.2,0.8,12,2.3c3.8,1.5,7.3,3.8,10.6,6.9V5.6c-3.4-2.3-7.1-4.1-11-5.3
								c-3.9-1.2-7.9-1.8-12.2-1.8c-11,0-19.7,3.4-26.1,10.1c-6.3,6.8-9.5,16-9.5,27.7c0,11.7,3.2,21,9.5,27.7
								c6.4,6.8,15.1,10.1,26.1,10.1c4.4,0,8.5-0.6,12.3-1.7C548.8,71.3,552.4,69.6,555.8,67.3z"/>
						</g>
						<g>
							<path id="DejaVuSans-4f_00000162339693280417747660000007601377723237800888_" d="M600.6,66.2c-7.2,0-12.9-2.7-17.1-8
								c-4.2-5.3-6.3-12.6-6.3-21.8c0-9.2,2.1-16.4,6.3-21.8c4.2-5.3,9.9-8,17.1-8c7.2,0,12.8,2.7,17,8c4.2,5.3,6.3,12.6,6.3,21.8
								c0,9.2-2.1,16.5-6.3,21.8C613.4,63.5,607.8,66.2,600.6,66.2z M600.6,74.2c10.2,0,18.4-3.4,24.5-10.3c6.1-6.9,9.2-16,9.2-27.6
								c0-11.5-3.1-20.7-9.2-27.5C619,2,610.8-1.4,600.6-1.4C590.4-1.4,582.2,2,576,8.8c-6.1,6.8-9.2,16-9.2,27.5s3.1,20.7,9.2,27.6
								C582.2,70.8,590.4,74.2,600.6,74.2z"/>
						</g>
						<g>
							<path id="DejaVuSans-56_00000100364892884886992210000017370620936421755305_" d="M666.8,0L639,72.9h10.3l23.1-61.4
								l23.1,61.4h10.2L678,0H666.8z"/>
						</g>
						<g>
							<path id="DejaVuSans-49_00000106108031487833488470000001005271748057326773_" d="M716.4,72.9h9.9V0h-9.9V72.9z"/>
						</g>
						<g>
							<path id="DejaVuSans-44_00000133513524160378329770000015949500956265259914_" d="M755.7,64.8V8.1h11.9
								c10.1,0,17.4,2.3,22.1,6.8c4.7,4.6,7,11.8,7,21.6c0,9.8-2.3,16.9-7,21.5s-12,6.8-22.1,6.8H755.7z M745.9,72.9h20.3
								c14.1,0,24.5-2.9,31.1-8.8c6.6-5.9,9.9-15.1,9.9-27.6c0-12.6-3.3-21.8-10-27.7c-6.6-5.9-17-8.8-31-8.8h-20.3V72.9z"/>
						</g>
					</g>
				</g>
			</g>
			<g id="text_6">
				<g transform="translate(4.721719 306.732456) rotate(-90) scale(0.1 -0.1)">
					<g>
						<path id="DejaVuSans-54_00000052103963904274989810000017178045472609651895_" d="M-0.3-27.1h61.7v-8.3H35.5V-100h-9.9v64.6
							H-0.3V-27.1z"/>
					</g>
					<g>
						<path id="DejaVuSans-72_00000065063935345443127310000002213486593300063636_" d="M87.4-53.7c-1,0.6-2.1,1-3.3,1.3
							C83-52.1,81.7-52,80.2-52c-5.1,0-9-1.7-11.7-5s-4.1-8-4.1-14.2V-100h-9v54.7h9v-8.5c1.9,3.3,4.4,5.8,7.4,7.4
							c3,1.6,6.7,2.4,11,2.4c0.6,0,1.3,0,2-0.1c0.8-0.1,1.6-0.2,2.5-0.4L87.4-53.7z"/>
					</g>
					<g>
						<path id="DejaVuSans-75" d="M95.9-78.4v33.1h9v-32.8c0-5.2,1-9.1,3-11.7c2-2.6,5.1-3.9,9.1-3.9c4.8,0,8.7,1.5,11.5,4.6
							c2.8,3.1,4.2,7.3,4.2,12.7v31h9V-100h-9v8.4c-2.2-3.3-4.7-5.8-7.6-7.4c-2.9-1.6-6.2-2.4-10-2.4c-6.3,0-11.1,2-14.3,5.9
							C97.6-91.7,95.9-85.9,95.9-78.4z M118.6-44L118.6-44z"/>
					</g>
					<g>
						<path id="DejaVuSans-65_00000116947091477614001970000018398220959414471348_" d="M207-70.4v-4.4h-41.3
							c0.4-6.2,2.3-10.9,5.6-14.1c3.3-3.2,8-4.9,13.9-4.9c3.4,0,6.8,0.4,10,1.3s6.5,2.1,9.7,3.8v-8.5c-3.2-1.4-6.5-2.4-9.9-3.1
							s-6.8-1.1-10.3-1.1c-8.7,0-15.6,2.5-20.7,7.6c-5.1,5.1-7.6,12-7.6,20.6c0,8.9,2.4,16,7.2,21.3c4.8,5.3,11.4,7.9,19.6,7.9
							c7.4,0,13.2-2.4,17.5-7.1C204.9-55.8,207-62.3,207-70.4z M198-67.8c-0.1,4.9-1.4,8.8-4.1,11.8c-2.7,2.9-6.2,4.4-10.7,4.4
							c-5,0-9-1.4-12-4.2s-4.7-6.8-5.2-12L198-67.8z"/>
					</g>
					<g>
						<path id="DejaVuSans-20_00000130622374594660190420000009578788912030111663_" d="M212.3-100"/>
					</g>
					<g>
						<path id="DejaVuSans-6c_00000041982165860201811170000010615926041241340290_" d="M253.6-24h9v-76h-9V-24z"/>
					</g>
					<g>
						<path id="DejaVuSans-61_00000054251584744820022770000005282334902603345047_" d="M306.2-72.5c-7.3,0-12.3-0.8-15.1-2.5
							s-4.2-4.5-4.2-8.5c0-3.2,1.1-5.7,3.2-7.6c2.1-1.9,5-2.8,8.6-2.8c5,0,9,1.8,12,5.3s4.5,8.2,4.5,14.1v2H306.2z M324.1-68.8V-100
							h-9v8.3c-2.1-3.3-4.6-5.8-7.7-7.3c-3.1-1.6-6.8-2.4-11.2-2.4c-5.6,0-10,1.6-13.4,4.7c-3.3,3.1-5,7.4-5,12.6
							c0,6.1,2.1,10.8,6.2,13.9c4.1,3.1,10.3,4.7,18.4,4.7h12.6v0.9c0,4.1-1.4,7.3-4.1,9.6s-6.5,3.4-11.5,3.4
							c-3.1,0-6.2-0.4-9.1-1.1c-3-0.8-5.8-1.9-8.5-3.4v8.3c3.3,1.3,6.5,2.2,9.6,2.8c3.1,0.6,6.1,1,9,1c7.9,0,13.8-2.1,17.7-6.2
							C322.2-54.2,324.1-60.5,324.1-68.8z"/>
					</g>
					<g>
						<path id="DejaVuSans-62_00000145047501996988674130000004447752845214457273_" d="M381.9-72.7c0,6.6-1.4,11.8-4.1,15.5
							s-6.5,5.6-11.2,5.6c-4.8,0-8.5-1.9-11.2-5.6s-4.1-8.9-4.1-15.5c0-6.6,1.4-11.8,4.1-15.5c2.7-3.8,6.5-5.6,11.2-5.6
							c4.8,0,8.5,1.9,11.2,5.6C380.5-84.5,381.9-79.3,381.9-72.7z M351.3-53.6c1.9,3.2,4.3,5.7,7.2,7.2c2.9,1.6,6.3,2.4,10.3,2.4
							c6.6,0,12-2.6,16.2-7.9c4.2-5.3,6.2-12.2,6.2-20.8s-2.1-15.5-6.2-20.8c-4.1-5.3-9.5-7.9-16.2-7.9c-4,0-7.4,0.8-10.3,2.4
							c-2.9,1.6-5.3,4-7.2,7.2v-8.2h-9v76h9V-53.6z"/>
					</g>
					<g>
						<path id="DejaVuSans-65_00000102504566335412825920000000423112962939001485_" d="M452.9-70.4v-4.4h-41.3
							c0.4-6.2,2.3-10.9,5.6-14.1c3.3-3.2,8-4.9,13.9-4.9c3.4,0,6.8,0.4,10,1.3s6.5,2.1,9.7,3.8v-8.5c-3.2-1.4-6.5-2.4-9.9-3.1
							s-6.8-1.1-10.3-1.1c-8.7,0-15.6,2.5-20.7,7.6c-5.1,5.1-7.6,12-7.6,20.6c0,8.9,2.4,16,7.2,21.3c4.8,5.3,11.4,7.9,19.6,7.9
							c7.4,0,13.2-2.4,17.5-7.1C450.7-55.8,452.9-62.3,452.9-70.4z M443.9-67.8c-0.1,4.9-1.4,8.8-4.1,11.8
							c-2.7,2.9-6.2,4.4-10.7,4.4c-5,0-9-1.4-12-4.2s-4.7-6.8-5.2-12L443.9-67.8z"/>
					</g>
					<g>
						<path id="DejaVuSans-6c_00000159463754888204413920000012670095252489456266_" d="M467.6-24h9v-76h-9V-24z"/>
					</g>
				</g>
			</g>
		</g>
		<g id="patch_3">
			<path class="st3" d="M91,476.1V88.7"/>
		</g>
		<g id="patch_4">
			<path class="st3" d="M478.4,476.1V88.7"/>
		</g>
		<g id="patch_5">
			<path class="st3" d="M91,476.1h387.4"/>
		</g>
		<g id="patch_6">
			<path class="st3" d="M91,88.7h387.4"/>
		</g>
		<g id="text_7">
			<g transform="translate(162.078219 185.589237) scale(0.09 -0.09)">
				<g>
					<path id="DejaVuSans-30" class="st0" d="M142.9,66.4c-5.1,0-8.9-2.5-11.5-7.5c-2.6-5-3.8-12.5-3.8-22.5c0-10,1.3-17.5,3.8-22.5
						c2.6-5,6.4-7.5,11.5-7.5c5.1,0,8.9,2.5,11.5,7.5c2.6,5,3.8,12.5,3.8,22.5c0,10-1.3,17.5-3.8,22.5
						C151.8,63.9,148,66.4,142.9,66.4z M142.9,74.2c8.2,0,14.4-3.2,18.7-9.7c4.3-6.5,6.5-15.8,6.5-28.1c0-12.3-2.2-21.6-6.5-28.1
						c-4.3-6.5-10.6-9.7-18.7-9.7c-8.2,0-14.4,3.2-18.7,9.7c-4.3,6.5-6.5,15.8-6.5,28.1c0,12.3,2.2,21.7,6.5,28.1
						C128.5,71,134.7,74.2,142.9,74.2z"/>
				</g>
				<g>
					<path id="DejaVuSans-2e" class="st0" d="M185.4,12.4h10.3V0h-10.3V12.4z"/>
				</g>
				<g>
					<path id="DejaVuSans-38" class="st0" d="M238.3,34.6c-4.7,0-8.4-1.3-11.1-3.8c-2.7-2.5-4-6-4-10.3c0-4.4,1.3-7.8,4-10.4
						c2.7-2.5,6.4-3.8,11.1-3.8s8.4,1.3,11.1,3.8c2.7,2.5,4.1,6,4.1,10.3c0,4.4-1.3,7.8-4,10.3C246.7,33.4,243,34.6,238.3,34.6z
						 M228.4,38.8c-4.2,1-7.5,3-9.9,5.9c-2.4,2.9-3.5,6.4-3.5,10.6c0,5.8,2.1,10.4,6.2,13.8c4.2,3.4,9.8,5.1,17.1,5.1
						c7.3,0,13-1.7,17.1-5.1c4.1-3.4,6.2-8,6.2-13.8c0-4.2-1.2-7.7-3.5-10.6c-2.4-2.9-5.6-4.9-9.8-5.9c4.8-1.1,8.4-3.3,11.1-6.5
						c2.7-3.2,4-7.2,4-11.8c0-7.1-2.2-12.5-6.5-16.3c-4.3-3.8-10.5-5.7-18.5-5.7c-8,0-14.2,1.9-18.5,5.7c-4.3,3.8-6.5,9.2-6.5,16.3
						c0,4.6,1.3,8.6,4,11.8C220,35.5,223.7,37.7,228.4,38.8z M224.8,54.4c0-3.8,1.2-6.7,3.5-8.8c2.4-2.1,5.7-3.2,9.9-3.2
						c4.2,0,7.6,1.1,9.9,3.2c2.4,2.1,3.6,5.1,3.6,8.8c0,3.8-1.2,6.7-3.6,8.8c-2.4,2.1-5.7,3.2-9.9,3.2c-4.3,0-7.6-1.1-9.9-3.2
						C226,61.1,224.8,58.2,224.8,54.4z"/>
				</g>
				<g>
					<path id="DejaVuSans-31" class="st0" d="M282.6,8.3h16.1v55.6l-17.5-3.5v9l17.4,3.5h9.9V8.3h16.1V0h-42V8.3z"/>
				</g>
				<g>
					<path id="DejaVuSans-36" class="st0" d="M366.8,40.4c-4.4,0-7.9-1.5-10.5-4.5c-2.6-3-3.9-7.2-3.9-12.4c0-5.2,1.3-9.4,3.9-12.4
						c2.6-3,6.1-4.6,10.5-4.6s7.9,1.5,10.5,4.6c2.6,3.1,3.9,7.2,3.9,12.4c0,5.3-1.3,9.4-3.9,12.4C374.7,38.9,371.2,40.4,366.8,40.4z
						 M386.4,71.3v-9c-2.5,1.2-5,2.1-7.5,2.7c-2.5,0.6-5,0.9-7.5,0.9c-6.5,0-11.5-2.2-14.9-6.6c-3.4-4.4-5.4-11-5.9-19.9
						c1.9,2.8,4.3,5,7.2,6.5c2.9,1.5,6.1,2.3,9.6,2.3c7.3,0,13.1-2.2,17.4-6.7c4.2-4.4,6.4-10.5,6.4-18.1c0-7.5-2.2-13.5-6.6-18
						c-4.4-4.5-10.3-6.8-17.7-6.8c-8.4,0-14.9,3.2-19.3,9.7c-4.5,6.5-6.7,15.8-6.7,28.1c0,11.5,2.7,20.7,8.2,27.6
						c5.5,6.9,12.8,10.3,22,10.3c2.5,0,5-0.2,7.5-0.7S383.6,72.3,386.4,71.3z"/>
				</g>
				<g>
					<path id="DejaVuSans-31_00000154384637991294926740000000844505807230147971_" class="st0" d="M409.8,8.3h16.1v55.6l-17.5-3.5
						v9l17.4,3.5h9.9V8.3h16.1V0h-42V8.3z"/>
				</g>
			</g>
		</g>
		<g id="text_8">
			<g transform="translate(355.766219 185.589237) scale(0.09 -0.09)">
				<g>
					<path id="DejaVuSans-30_00000101085206379941393730000012214069733390406562_" d="M142.9,66.4c-5.1,0-8.9-2.5-11.5-7.5
						c-2.6-5-3.8-12.5-3.8-22.5c0-10,1.3-17.5,3.8-22.5c2.6-5,6.4-7.5,11.5-7.5c5.1,0,8.9,2.5,11.5,7.5c2.6,5,3.8,12.5,3.8,22.5
						c0,10-1.3,17.5-3.8,22.5C151.8,63.9,148,66.4,142.9,66.4z M142.9,74.2c8.2,0,14.4-3.2,18.7-9.7c4.3-6.5,6.5-15.8,6.5-28.1
						c0-12.3-2.2-21.6-6.5-28.1c-4.3-6.5-10.6-9.7-18.7-9.7c-8.2,0-14.4,3.2-18.7,9.7c-4.3,6.5-6.5,15.8-6.5,28.1
						c0,12.3,2.2,21.7,6.5,28.1C128.5,71,134.7,74.2,142.9,74.2z"/>
				</g>
				<g>
					<path id="DejaVuSans-2e_00000043416193934513010140000011007231881093794458_" d="M185.4,12.4h10.3V0h-10.3V12.4z"/>
				</g>
				<g>
					<path id="DejaVuSans-31_00000036219042512075288320000009796154220555011723_" d="M218.9,8.3H235v55.6l-17.5-3.5v9l17.4,3.5
						h9.9V8.3h16.1V0h-42V8.3z"/>
				</g>
				<g>
					<path id="DejaVuSans-38_00000134232553077440427420000013683897374735220621_" d="M301.9,34.6c-4.7,0-8.4-1.3-11.1-3.8
						c-2.7-2.5-4-6-4-10.3c0-4.4,1.3-7.8,4-10.4c2.7-2.5,6.4-3.8,11.1-3.8s8.4,1.3,11.1,3.8c2.7,2.5,4.1,6,4.1,10.3
						c0,4.4-1.3,7.8-4,10.3C310.4,33.4,306.7,34.6,301.9,34.6z M292.1,38.8c-4.2,1-7.5,3-9.9,5.9c-2.4,2.9-3.5,6.4-3.5,10.6
						c0,5.8,2.1,10.4,6.2,13.8c4.2,3.4,9.8,5.1,17.1,5.1c7.3,0,13-1.7,17.1-5.1s6.2-8,6.2-13.8c0-4.2-1.2-7.7-3.5-10.6
						c-2.4-2.9-5.6-4.9-9.8-5.9c4.8-1.1,8.4-3.3,11.1-6.5c2.7-3.2,4-7.2,4-11.8c0-7.1-2.2-12.5-6.5-16.3c-4.3-3.8-10.5-5.7-18.5-5.7
						c-8,0-14.2,1.9-18.5,5.7c-4.3,3.8-6.5,9.2-6.5,16.3c0,4.6,1.3,8.6,4,11.8C283.6,35.5,287.3,37.7,292.1,38.8z M288.5,54.4
						c0-3.8,1.2-6.7,3.5-8.8c2.4-2.1,5.7-3.2,9.9-3.2c4.2,0,7.6,1.1,9.9,3.2c2.4,2.1,3.6,5.1,3.6,8.8c0,3.8-1.2,6.7-3.6,8.8
						c-2.4,2.1-5.7,3.2-9.9,3.2c-4.3,0-7.6-1.1-9.9-3.2C289.6,61.1,288.5,58.2,288.5,54.4z"/>
				</g>
				<g>
					<path id="DejaVuSans-33" d="M374.3,39.3c4.7-1,8.4-3.1,11-6.3c2.7-3.2,4-7.1,4-11.8c0-7.2-2.5-12.8-7.4-16.7
						c-4.9-3.9-12-5.9-21.1-5.9c-3.1,0-6.2,0.3-9.4,0.9s-6.6,1.5-10,2.7v9.5c2.7-1.6,5.7-2.8,9-3.6c3.3-0.8,6.7-1.2,10.2-1.2
						c6.2,0,10.9,1.2,14.1,3.7c3.2,2.4,4.9,6,4.9,10.6c0,4.3-1.5,7.7-4.5,10.1c-3,2.4-7.2,3.6-12.6,3.6H354V43h8.9
						c4.8,0,8.6,1,11.1,2.9c2.6,1.9,3.9,4.7,3.9,8.4c0,3.7-1.3,6.6-4,8.6c-2.6,2-6.4,3-11.4,3c-2.7,0-5.6-0.3-8.7-0.9
						c-3.1-0.6-6.5-1.5-10.2-2.7v8.8c3.8,1,7.3,1.8,10.5,2.3s6.4,0.8,9.2,0.8c7.5,0,13.4-1.7,17.8-5.1c4.4-3.4,6.5-8,6.5-13.8
						c0-4-1.2-7.5-3.5-10.2S378.6,40.4,374.3,39.3z"/>
				</g>
				<g>
					<path id="DejaVuSans-39" d="M408.4,1.5v9c2.5-1.2,5-2.1,7.5-2.7c2.5-0.6,5-0.9,7.5-0.9c6.5,0,11.5,2.2,14.9,6.6
						c3.4,4.4,5.4,11,5.9,20c-1.9-2.8-4.3-5-7.2-6.5c-2.9-1.5-6.1-2.2-9.6-2.2c-7.3,0-13.1,2.2-17.3,6.6c-4.2,4.4-6.4,10.5-6.4,18.1
						c0,7.5,2.2,13.5,6.6,18c4.4,4.5,10.3,6.8,17.7,6.8c8.4,0,14.9-3.2,19.3-9.7c4.4-6.5,6.7-15.8,6.7-28.1
						c0-11.5-2.7-20.7-8.2-27.5C440.3,2,433-1.4,423.8-1.4c-2.5,0-5,0.2-7.5,0.7C413.7-0.2,411.1,0.5,408.4,1.5z M428,32.4
						c4.4,0,7.9,1.5,10.5,4.5c2.6,3,3.9,7.2,3.9,12.5c0,5.2-1.3,9.4-3.9,12.4c-2.6,3-6.1,4.6-10.5,4.6c-4.4,0-7.9-1.5-10.5-4.6
						c-2.6-3-3.9-7.2-3.9-12.4c0-5.3,1.3-9.4,3.9-12.5C420.1,33.9,423.6,32.4,428,32.4z"/>
				</g>
			</g>
		</g>
		<g id="text_9">
			<g transform="translate(162.078219 379.277237) scale(0.09 -0.09)">
				<g>
					<path id="DejaVuSans-30_00000094587594032791923220000007377977466940282500_" d="M142.9,66.4c-5.1,0-8.9-2.5-11.5-7.5
						c-2.6-5-3.8-12.5-3.8-22.5c0-10,1.3-17.5,3.8-22.5c2.6-5,6.4-7.5,11.5-7.5c5.1,0,8.9,2.5,11.5,7.5c2.6,5,3.8,12.5,3.8,22.5
						c0,10-1.3,17.5-3.8,22.5C151.8,63.9,148,66.4,142.9,66.4z M142.9,74.2c8.2,0,14.4-3.2,18.7-9.7c4.3-6.5,6.5-15.8,6.5-28.1
						c0-12.3-2.2-21.6-6.5-28.1c-4.3-6.5-10.6-9.7-18.7-9.7c-8.2,0-14.4,3.2-18.7,9.7c-4.3,6.5-6.5,15.8-6.5,28.1
						c0,12.3,2.2,21.7,6.5,28.1C128.5,71,134.7,74.2,142.9,74.2z"/>
				</g>
				<g>
					<path id="DejaVuSans-2e_00000112591583245583657560000003818313032760486302_" d="M185.4,12.4h10.3V0h-10.3V12.4z"/>
				</g>
				<g>
					<path id="DejaVuSans-31_00000064339432106701332340000017663901562154039983_" d="M218.9,8.3H235v55.6l-17.5-3.5v9l17.4,3.5
						h9.9V8.3h16.1V0h-42V8.3z"/>
				</g>
				<g>
					<path id="DejaVuSans-37" d="M278.3,72.9h46.9v-4.2L298.8,0h-10.3l24.9,64.6h-35V72.9z"/>
				</g>
				<g>
					<path id="DejaVuSans-31_00000165936446593354481220000000119322931896547977_" d="M346.2,8.3h16.1v55.6l-17.5-3.5v9l17.4,3.5
						h9.9V8.3h16.1V0h-42V8.3z"/>
				</g>
				<g>
					<path id="DejaVuSans-37_00000046309725595427682350000016330974558482505147_" d="M405.6,72.9h46.9v-4.2L426,0h-10.3l24.9,64.6
						h-35V72.9z"/>
				</g>
			</g>
		</g>
		<g id="text_10">
			<g transform="translate(355.766219 379.277237) scale(0.09 -0.09)">
				<g>
					<path id="DejaVuSans-30_00000139975767418482004820000010155364650327628969_" class="st0" d="M142.9,66.4
						c-5.1,0-8.9-2.5-11.5-7.5c-2.6-5-3.8-12.5-3.8-22.5c0-10,1.3-17.5,3.8-22.5c2.6-5,6.4-7.5,11.5-7.5c5.1,0,8.9,2.5,11.5,7.5
						c2.6,5,3.8,12.5,3.8,22.5c0,10-1.3,17.5-3.8,22.5C151.8,63.9,148,66.4,142.9,66.4z M142.9,74.2c8.2,0,14.4-3.2,18.7-9.7
						c4.3-6.5,6.5-15.8,6.5-28.1c0-12.3-2.2-21.6-6.5-28.1c-4.3-6.5-10.6-9.7-18.7-9.7c-8.2,0-14.4,3.2-18.7,9.7
						c-4.3,6.5-6.5,15.8-6.5,28.1c0,12.3,2.2,21.7,6.5,28.1C128.5,71,134.7,74.2,142.9,74.2z"/>
				</g>
				<g>
					<path id="DejaVuSans-2e_00000074424888817737250270000016819166827838482591_" class="st0" d="M185.4,12.4h10.3V0h-10.3V12.4z"
						/>
				</g>
				<g>
					<path id="DejaVuSans-38_00000021812922577867572430000013258601960757536911_" class="st0" d="M238.3,34.6
						c-4.7,0-8.4-1.3-11.1-3.8c-2.7-2.5-4-6-4-10.3c0-4.4,1.3-7.8,4-10.4c2.7-2.5,6.4-3.8,11.1-3.8s8.4,1.3,11.1,3.8
						c2.7,2.5,4.1,6,4.1,10.3c0,4.4-1.3,7.8-4,10.3C246.7,33.4,243,34.6,238.3,34.6z M228.4,38.8c-4.2,1-7.5,3-9.9,5.9
						c-2.4,2.9-3.5,6.4-3.5,10.6c0,5.8,2.1,10.4,6.2,13.8c4.2,3.4,9.8,5.1,17.1,5.1c7.3,0,13-1.7,17.1-5.1c4.1-3.4,6.2-8,6.2-13.8
						c0-4.2-1.2-7.7-3.5-10.6c-2.4-2.9-5.6-4.9-9.8-5.9c4.8-1.1,8.4-3.3,11.1-6.5c2.7-3.2,4-7.2,4-11.8c0-7.1-2.2-12.5-6.5-16.3
						c-4.3-3.8-10.5-5.7-18.5-5.7c-8,0-14.2,1.9-18.5,5.7c-4.3,3.8-6.5,9.2-6.5,16.3c0,4.6,1.3,8.6,4,11.8
						C220,35.5,223.7,37.7,228.4,38.8z M224.8,54.4c0-3.8,1.2-6.7,3.5-8.8c2.4-2.1,5.7-3.2,9.9-3.2c4.2,0,7.6,1.1,9.9,3.2
						c2.4,2.1,3.6,5.1,3.6,8.8c0,3.8-1.2,6.7-3.6,8.8c-2.4,2.1-5.7,3.2-9.9,3.2c-4.3,0-7.6-1.1-9.9-3.2
						C226,61.1,224.8,58.2,224.8,54.4z"/>
				</g>
				<g>
					<path id="DejaVuSans-32" class="st0" d="M289.3,8.3h34.4V0h-46.3v8.3c3.7,3.9,8.8,9.1,15.3,15.6c6.5,6.5,10.5,10.7,12.2,12.6
						c3.2,3.5,5.4,6.5,6.6,9c1.3,2.5,1.9,4.9,1.9,7.2c0,3.9-1.4,7-4.1,9.5c-2.7,2.4-6.3,3.7-10.6,3.7c-3.1,0-6.4-0.5-9.8-1.6
						c-3.4-1.1-7.1-2.7-11-4.9v10c4,1.6,7.7,2.8,11.1,3.6c3.5,0.8,6.6,1.2,9.5,1.2c7.6,0,13.6-1.9,18.1-5.7
						c4.5-3.8,6.7-8.8,6.7-15.1c0-3-0.6-5.8-1.7-8.5c-1.1-2.7-3.2-5.8-6.1-9.5c-0.8-0.9-3.4-3.7-7.8-8.2
						C303.4,22.7,297.3,16.4,289.3,8.3z"/>
				</g>
				<g>
					<path id="DejaVuSans-38_00000093138149795300219360000003861444805034370714_" class="st0" d="M365.5,34.6
						c-4.7,0-8.4-1.3-11.1-3.8c-2.7-2.5-4-6-4-10.3c0-4.4,1.3-7.8,4-10.4c2.7-2.5,6.4-3.8,11.1-3.8s8.4,1.3,11.1,3.8
						c2.7,2.5,4.1,6,4.1,10.3c0,4.4-1.3,7.8-4,10.3C374,33.4,370.3,34.6,365.5,34.6z M355.7,38.8c-4.2,1-7.5,3-9.9,5.9
						c-2.4,2.9-3.5,6.4-3.5,10.6c0,5.8,2.1,10.4,6.2,13.8c4.2,3.4,9.8,5.1,17.1,5.1c7.3,0,13-1.7,17.1-5.1c4.1-3.4,6.2-8,6.2-13.8
						c0-4.2-1.2-7.7-3.5-10.6c-2.4-2.9-5.6-4.9-9.8-5.9c4.8-1.1,8.4-3.3,11.1-6.5c2.7-3.2,4-7.2,4-11.8c0-7.1-2.2-12.5-6.5-16.3
						c-4.3-3.8-10.5-5.7-18.5-5.7c-8,0-14.2,1.9-18.5,5.7c-4.3,3.8-6.5,9.2-6.5,16.3c0,4.6,1.3,8.6,4,11.8
						C347.2,35.5,350.9,37.7,355.7,38.8z M352.1,54.4c0-3.8,1.2-6.7,3.5-8.8c2.4-2.1,5.7-3.2,9.9-3.2c4.2,0,7.6,1.1,9.9,3.2
						c2.4,2.1,3.6,5.1,3.6,8.8c0,3.8-1.2,6.7-3.6,8.8c-2.4,2.1-5.7,3.2-9.9,3.2c-4.3,0-7.6-1.1-9.9-3.2
						C353.3,61.1,352.1,58.2,352.1,54.4z"/>
				</g>
				<g>
					<path id="DejaVuSans-33_00000032627628175696000490000002854855676408156306_" class="st0" d="M438,39.3c4.7-1,8.4-3.1,11-6.3
						c2.7-3.2,4-7.1,4-11.8c0-7.2-2.5-12.8-7.4-16.7c-4.9-3.9-12-5.9-21.1-5.9c-3.1,0-6.2,0.3-9.4,0.9c-3.2,0.6-6.6,1.5-10,2.7v9.5
						c2.7-1.6,5.7-2.8,9-3.6c3.3-0.8,6.7-1.2,10.2-1.2c6.2,0,10.9,1.2,14.1,3.7c3.2,2.4,4.9,6,4.9,10.6c0,4.3-1.5,7.7-4.5,10.1
						c-3,2.4-7.2,3.6-12.6,3.6h-8.5V43h8.9c4.8,0,8.6,1,11.1,2.9c2.6,1.9,3.9,4.7,3.9,8.4c0,3.7-1.3,6.6-4,8.6c-2.6,2-6.4,3-11.4,3
						c-2.7,0-5.6-0.3-8.7-0.9c-3.1-0.6-6.5-1.5-10.2-2.7v8.8c3.8,1,7.3,1.8,10.5,2.3c3.3,0.5,6.4,0.8,9.2,0.8
						c7.5,0,13.4-1.7,17.8-5.1c4.4-3.4,6.5-8,6.5-13.8c0-4-1.2-7.5-3.5-10.2S442.2,40.4,438,39.3z"/>
				</g>
			</g>
		</g>
		<g id="text_11">
			<g transform="translate(224.026125 82.745237) scale(0.12 -0.12)">
				<g>
					<path id="DejaVuSans-43_00000004528153493759648060000001291845767955196594_" d="M147.7,67.3V56.9c-3.3,3.1-6.9,5.4-10.6,6.9
						c-3.8,1.5-7.8,2.3-12,2.3c-8.3,0-14.7-2.5-19.1-7.6c-4.4-5.1-6.6-12.5-6.6-22.1c0-9.6,2.2-17,6.6-22c4.4-5.1,10.8-7.6,19.1-7.6
						c4.2,0,8.2,0.8,12,2.3c3.8,1.5,7.3,3.8,10.6,6.9V5.6c-3.4-2.3-7.1-4.1-11-5.3c-3.9-1.2-7.9-1.8-12.2-1.8
						c-11,0-19.7,3.4-26.1,10.1c-6.3,6.8-9.5,16-9.5,27.7c0,11.7,3.2,21,9.5,27.7c6.4,6.8,15.1,10.1,26.1,10.1
						c4.4,0,8.5-0.6,12.3-1.7C140.7,71.3,144.4,69.6,147.7,67.3z"/>
				</g>
				<g>
					<path id="DejaVuSans-6f_00000176733459165429785420000015228876995071774850_" d="M183.8,48.4c-4.8,0-8.6-1.9-11.4-5.6
						c-2.8-3.8-4.2-8.9-4.2-15.5s1.4-11.7,4.2-15.5c2.8-3.8,6.6-5.6,11.5-5.6c4.8,0,8.6,1.9,11.4,5.7c2.8,3.8,4.2,8.9,4.2,15.4
						c0,6.5-1.4,11.6-4.2,15.4C192.4,46.5,188.6,48.4,183.8,48.4z M183.8,56c7.8,0,13.9-2.5,18.4-7.6c4.5-5.1,6.7-12.1,6.7-21.1
						c0-8.9-2.2-16-6.7-21.1c-4.5-5.1-10.6-7.6-18.4-7.6c-7.8,0-14,2.5-18.4,7.6c-4.4,5.1-6.7,12.1-6.7,21.1c0,9,2.2,16,6.7,21.1
						C169.8,53.5,175.9,56,183.8,56z"/>
				</g>
				<g>
					<path id="DejaVuSans-6e_00000175319316415637693400000018017523989193469589_" d="M269.2,33V0h-9v32.7c0,5.2-1,9-3,11.6
						c-2,2.6-5,3.9-9.1,3.9c-4.9,0-8.7-1.5-11.5-4.6c-2.8-3.1-4.2-7.3-4.2-12.6V0h-9v54.7h9v-8.5c2.2,3.3,4.7,5.8,7.6,7.4
						c2.9,1.6,6.3,2.4,10.1,2.4c6.3,0,11-1.9,14.3-5.8C267.6,46.3,269.2,40.6,269.2,33z"/>
				</g>
				<g>
					<path id="DejaVuSans-66" d="M314.8,76v-7.5h-8.6c-3.2,0-5.5-0.7-6.7-2c-1.2-1.3-1.9-3.6-1.9-7v-4.8h14.8v-7h-14.8V0h-9v47.7
						H280v7h8.6v3.8c0,6.1,1.4,10.5,4.2,13.3c2.8,2.8,7.3,4.2,13.5,4.2H314.8z"/>
				</g>
				<g>
					<path id="DejaVuSans-75_00000008834766103424586950000000907304578579101880_" d="M321.4,21.6v33.1h9V21.9c0-5.2,1-9.1,3-11.7
						c2-2.6,5.1-3.9,9.1-3.9c4.8,0,8.7,1.5,11.5,4.6c2.8,3.1,4.2,7.3,4.2,12.7v31h9V0h-9v8.4c-2.2-3.3-4.7-5.8-7.6-7.4
						c-2.9-1.6-6.2-2.4-10-2.4c-6.3,0-11.1,2-14.3,5.9C323,8.3,321.4,14.1,321.4,21.6z M344,56L344,56z"/>
				</g>
				<g>
					<path id="DejaVuSans-73" d="M420.6,53.1v-8.5c-2.5,1.3-5.2,2.3-7.9,2.9c-2.7,0.7-5.6,1-8.5,1c-4.5,0-7.8-0.7-10-2
						c-2.2-1.4-3.3-3.4-3.3-6.2c0-2.1,0.8-3.7,2.4-4.9s4.8-2.3,9.6-3.4l3.1-0.7c6.4-1.4,10.9-3.3,13.6-5.8s4-6,4-10.4
						c0-5.1-2-9.1-6-12.1c-4-3-9.5-4.4-16.6-4.4c-2.9,0-6,0.3-9.2,0.9c-3.2,0.6-6.5,1.4-10,2.6v9.3c3.3-1.7,6.6-3,9.8-3.9
						c3.2-0.9,6.4-1.3,9.6-1.3c4.2,0,7.5,0.7,9.8,2.2c2.3,1.4,3.4,3.5,3.4,6.1c0,2.4-0.8,4.3-2.5,5.6c-1.6,1.3-5.2,2.6-10.8,3.8
						l-3.1,0.7c-5.6,1.2-9.6,3-12.1,5.4c-2.5,2.4-3.7,5.8-3.7,10c0,5.1,1.8,9.1,5.5,11.9c3.6,2.8,8.8,4.2,15.5,4.2
						c3.3,0,6.4-0.2,9.4-0.7C415.4,54.8,418.1,54.1,420.6,53.1z"/>
				</g>
				<g>
					<path id="DejaVuSans-69_00000078732389295522195430000012326033963472028572_" d="M437.8,54.7h9V0h-9V54.7z M437.8,76h9V64.6
						h-9V76z"/>
				</g>
				<g>
					<path id="DejaVuSans-6f_00000167384059819177099370000010943766677333477310_" d="M486.8,48.4c-4.8,0-8.6-1.9-11.4-5.6
						c-2.8-3.8-4.2-8.9-4.2-15.5s1.4-11.7,4.2-15.5c2.8-3.8,6.6-5.6,11.5-5.6c4.8,0,8.6,1.9,11.4,5.7c2.8,3.8,4.2,8.9,4.2,15.4
						c0,6.5-1.4,11.6-4.2,15.4C495.4,46.5,491.6,48.4,486.8,48.4z M486.8,56c7.8,0,13.9-2.5,18.4-7.6c4.5-5.1,6.7-12.1,6.7-21.1
						c0-8.9-2.2-16-6.7-21.1c-4.5-5.1-10.6-7.6-18.4-7.6c-7.8,0-14,2.5-18.4,7.6c-4.4,5.1-6.7,12.1-6.7,21.1c0,9,2.2,16,6.7,21.1
						C472.8,53.5,479,56,486.8,56z"/>
				</g>
				<g>
					<path id="DejaVuSans-6e_00000168808983650713715100000011819490071217103770_" d="M572.3,33V0h-9v32.7c0,5.2-1,9-3,11.6
						c-2,2.6-5,3.9-9.1,3.9c-4.9,0-8.7-1.5-11.5-4.6c-2.8-3.1-4.2-7.3-4.2-12.6V0h-9v54.7h9v-8.5c2.2,3.3,4.7,5.8,7.6,7.4
						c2.9,1.6,6.3,2.4,10.1,2.4c6.3,0,11-1.9,14.2-5.8C570.6,46.3,572.3,40.6,572.3,33z"/>
				</g>
				<g>
					<path id="DejaVuSans-20_00000135672259826205896200000017748388555860345728_" d="M580.7,0"/>
				</g>
				<g>
					<path id="DejaVuSans-4d" d="M622.3,72.9H637l18.6-49.6l18.7,49.6H689V0h-9.6v64l-18.8-50h-9.9l-18.8,50V0h-9.6V72.9z"/>
				</g>
				<g>
					<path id="DejaVuSans-61_00000043417328137956160290000007239713681678990221_" d="M733.1,27.5c-7.3,0-12.3-0.8-15.1-2.5
						s-4.2-4.5-4.2-8.5c0-3.2,1.1-5.7,3.2-7.6c2.1-1.9,5-2.8,8.6-2.8c5,0,9,1.8,12,5.3s4.5,8.2,4.5,14.1v2H733.1z M751,31.2V0h-9
						v8.3C740,5,737.4,2.5,734.4,1s-6.8-2.4-11.2-2.4c-5.6,0-10,1.6-13.4,4.7c-3.3,3.1-5,7.4-5,12.6c0,6.1,2.1,10.8,6.2,13.9
						c4.1,3.1,10.3,4.7,18.4,4.7H742v0.9c0,4.1-1.4,7.3-4.1,9.6s-6.5,3.4-11.5,3.4c-3.1,0-6.2-0.4-9.1-1.1c-3-0.8-5.8-1.9-8.5-3.4
						v8.3c3.3,1.3,6.5,2.2,9.6,2.8c3.1,0.6,6.1,1,9,1c7.9,0,13.8-2.1,17.7-6.2C749.1,45.7,751,39.5,751,31.2z"/>
				</g>
				<g>
					<path id="DejaVuSans-74_00000172402336951852217390000000111593627088336550_" d="M778.4,70.2V54.7h18.5v-7h-18.5V18
						c0-4.5,0.6-7.3,1.8-8.6s3.7-1.9,7.5-1.9h9.2V0h-9.2c-6.9,0-11.7,1.3-14.4,3.9c-2.6,2.6-4,7.3-4,14.1v29.7h-6.6v7h6.6v15.5
						H778.4z"/>
				</g>
				<g>
					<path id="DejaVuSans-72_00000072254589690245120960000012703420830133601465_" d="M840.4,46.3c-1,0.6-2.1,1-3.3,1.3
						c-1.2,0.3-2.5,0.4-3.9,0.4c-5.1,0-9-1.7-11.7-5s-4.1-8-4.1-14.2V0h-9v54.7h9v-8.5c1.9,3.3,4.4,5.8,7.4,7.4
						c3,1.6,6.7,2.4,11,2.4c0.6,0,1.3,0,2-0.1c0.8-0.1,1.6-0.2,2.5-0.4L840.4,46.3z"/>
				</g>
				<g>
					<path id="DejaVuSans-69_00000115478373800271340970000015258341056025068171_" d="M849.8,54.7h9V0h-9V54.7z M849.8,76h9V64.6
						h-9V76z"/>
				</g>
				<g>
					<path id="DejaVuSans-78" d="M923.1,54.7l-19.8-26.6L924.1,0h-10.6l-15.9,21.5L881.7,0h-10.6l21.2,28.6l-19.4,26.1h10.6
						L898,35.2l14.5,19.5H923.1z"/>
				</g>
			</g>
		</g>
	</g>
	<g id="axes_2">
		<g id="patch_7">
			<path class="st0" d="M502.6,550.1h26.8V14.8h-26.8V550.1z"/>
		</g>
		
			<image style="overflow:visible;enable-background:new    ;" width="37" height="743" id="image68800d2934" xlink:href="710A455.png"  transform="matrix(0.72 0 0 -0.72 502.48 550.08)">
		</image>
		<g id="matplotlib.axis_3">
		</g>
		<g id="matplotlib.axis_4">
			<g id="ytick_3">
				<g id="line2d_5">
					<g>
						<g>
							<path id="m9c7da75ffd" class="st2" d="M529.3,550.1h3.5"/>
						</g>
					</g>
				</g>
				<g id="text_12">
					<g transform="translate(526.334324 553.905693) scale(0.1 -0.1)">
						<g>
							<path id="DejaVuSans-30_00000058580644557493155970000004453099856074705825_" d="M131.8,66.4c-5.1,0-8.9-2.5-11.5-7.5
								c-2.6-5-3.8-12.5-3.8-22.5c0-10,1.3-17.5,3.8-22.5c2.6-5,6.4-7.5,11.5-7.5c5.1,0,8.9,2.5,11.5,7.5c2.6,5,3.8,12.5,3.8,22.5
								c0,10-1.3,17.5-3.8,22.5C140.7,63.9,136.9,66.4,131.8,66.4z M131.8,74.2c8.2,0,14.4-3.2,18.7-9.7c4.3-6.5,6.5-15.8,6.5-28.1
								c0-12.3-2.2-21.6-6.5-28.1c-4.3-6.5-10.6-9.7-18.7-9.7c-8.2,0-14.4,3.2-18.7,9.7c-4.3,6.5-6.5,15.8-6.5,28.1
								c0,12.3,2.2,21.7,6.5,28.1C117.4,71,123.6,74.2,131.8,74.2z"/>
						</g>
						<g>
							<path id="DejaVuSans-2e_00000074428640695670168850000008338875323729077178_" d="M174.3,12.4h10.3V0h-10.3V12.4z"/>
						</g>
						<g>
							<path id="DejaVuSans-30_00000156576447370442850550000017664594951784457402_" d="M227.2,66.4c-5.1,0-8.9-2.5-11.5-7.5
								c-2.6-5-3.8-12.5-3.8-22.5c0-10,1.3-17.5,3.8-22.5c2.6-5,6.4-7.5,11.5-7.5c5.1,0,8.9,2.5,11.5,7.5c2.6,5,3.8,12.5,3.8,22.5
								c0,10-1.3,17.5-3.8,22.5C236.1,63.9,232.3,66.4,227.2,66.4z M227.2,74.2c8.2,0,14.4-3.2,18.7-9.7c4.3-6.5,6.5-15.8,6.5-28.1
								c0-12.3-2.2-21.6-6.5-28.1c-4.3-6.5-10.6-9.7-18.7-9.7c-8.2,0-14.4,3.2-18.7,9.7c-4.3,6.5-6.5,15.8-6.5,28.1
								c0,12.3,2.2,21.7,6.5,28.1C212.8,71,219,74.2,227.2,74.2z"/>
						</g>
					</g>
				</g>
			</g>
			<g id="ytick_4">
				<g id="line2d_6">
					<g>
						<g>
							<path id="m9c7da75ffd_00000142177391922377296170000003649964419827509132_" class="st2" d="M529.3,443h3.5"/>
						</g>
					</g>
				</g>
				<g id="text_13">
					<g transform="translate(526.334324 446.836398) scale(0.1 -0.1)">
						<g>
							<path id="DejaVuSans-30_00000039826490809400592560000009943663900875006629_" d="M131.8,66.4c-5.1,0-8.9-2.5-11.5-7.5
								c-2.6-5-3.8-12.5-3.8-22.5c0-10,1.3-17.5,3.8-22.5c2.6-5,6.4-7.5,11.5-7.5c5.1,0,8.9,2.5,11.5,7.5c2.6,5,3.8,12.5,3.8,22.5
								c0,10-1.3,17.5-3.8,22.5C140.7,63.9,136.9,66.4,131.8,66.4z M131.8,74.2c8.2,0,14.4-3.2,18.7-9.7c4.3-6.5,6.5-15.8,6.5-28.1
								c0-12.3-2.2-21.6-6.5-28.1c-4.3-6.5-10.6-9.7-18.7-9.7c-8.2,0-14.4,3.2-18.7,9.7c-4.3,6.5-6.5,15.8-6.5,28.1
								c0,12.3,2.2,21.7,6.5,28.1C117.4,71,123.6,74.2,131.8,74.2z"/>
						</g>
						<g>
							<path id="DejaVuSans-2e_00000042732436454504451450000008237600899295628425_" d="M174.3,12.4h10.3V0h-10.3V12.4z"/>
						</g>
						<g>
							<path id="DejaVuSans-32_00000010279906101973432140000018429918767190509976_" d="M214.6,8.3H249V0h-46.3v8.3
								c3.7,3.9,8.8,9.1,15.3,15.6c6.5,6.5,10.5,10.7,12.2,12.6c3.2,3.5,5.4,6.5,6.6,9c1.3,2.5,1.9,4.9,1.9,7.3c0,3.9-1.4,7-4.1,9.5
								c-2.7,2.4-6.3,3.7-10.6,3.7c-3.1,0-6.4-0.5-9.8-1.6c-3.4-1.1-7.1-2.7-11-4.9v10c4,1.6,7.7,2.8,11.1,3.6
								c3.5,0.8,6.6,1.2,9.5,1.2c7.6,0,13.6-1.9,18.1-5.7c4.5-3.8,6.7-8.8,6.7-15.1c0-3-0.6-5.8-1.7-8.5c-1.1-2.7-3.2-5.8-6.1-9.5
								c-0.8-0.9-3.4-3.7-7.8-8.2C228.7,22.7,222.5,16.4,214.6,8.3z"/>
						</g>
					</g>
				</g>
			</g>
			<g id="ytick_5">
				<g id="line2d_7">
					<g>
						<g>
							<path id="m9c7da75ffd_00000176011190718506100050000004918741440681656747_" class="st2" d="M529.3,336h3.5"/>
						</g>
					</g>
				</g>
				<g id="text_14">
					<g transform="translate(526.334324 339.767103) scale(0.1 -0.1)">
						<g>
							<path id="DejaVuSans-30_00000124880815261775201130000007925717729585773240_" d="M131.8,66.4c-5.1,0-8.9-2.5-11.5-7.5
								c-2.6-5-3.8-12.5-3.8-22.5c0-10,1.3-17.5,3.8-22.5c2.6-5,6.4-7.5,11.5-7.5c5.1,0,8.9,2.5,11.5,7.5c2.6,5,3.8,12.5,3.8,22.5
								c0,10-1.3,17.5-3.8,22.5C140.7,63.9,136.9,66.4,131.8,66.4z M131.8,74.2c8.2,0,14.4-3.2,18.7-9.7c4.3-6.5,6.5-15.8,6.5-28.1
								c0-12.3-2.2-21.6-6.5-28.1c-4.3-6.5-10.6-9.7-18.7-9.7c-8.2,0-14.4,3.2-18.7,9.7c-4.3,6.5-6.5,15.8-6.5,28.1
								c0,12.3,2.2,21.7,6.5,28.1C117.4,71,123.6,74.2,131.8,74.2z"/>
						</g>
						<g>
							<path id="DejaVuSans-2e_00000178921341434030361000000005849190365361229729_" d="M174.3,12.4h10.3V0h-10.3V12.4z"/>
						</g>
						<g>
							<path id="DejaVuSans-34" d="M233.2,64.3l-24.9-38.9h24.9V64.3z M230.6,72.9H243V25.4h10.4v-8.2H243V0h-9.8v17.2h-32.9v9.5
								L230.6,72.9z"/>
						</g>
					</g>
				</g>
			</g>
			<g id="ytick_6">
				<g id="line2d_8">
					<g>
						<g>
							<path id="m9c7da75ffd_00000012473545601686271620000004477508406464648087_" class="st2" d="M529.3,228.9h3.5"/>
						</g>
					</g>
				</g>
				<g id="text_15">
					<g transform="translate(526.334324 232.697808) scale(0.1 -0.1)">
						<g>
							<path id="DejaVuSans-30_00000124862768024611727660000014269512926595318706_" d="M131.8,66.4c-5.1,0-8.9-2.5-11.5-7.5
								c-2.6-5-3.8-12.5-3.8-22.5c0-10,1.3-17.5,3.8-22.5c2.6-5,6.4-7.5,11.5-7.5c5.1,0,8.9,2.5,11.5,7.5c2.6,5,3.8,12.5,3.8,22.5
								c0,10-1.3,17.5-3.8,22.5C140.7,63.9,136.9,66.4,131.8,66.4z M131.8,74.2c8.2,0,14.4-3.2,18.7-9.7c4.3-6.5,6.5-15.8,6.5-28.1
								c0-12.3-2.2-21.6-6.5-28.1c-4.3-6.5-10.6-9.7-18.7-9.7c-8.2,0-14.4,3.2-18.7,9.7c-4.3,6.5-6.5,15.8-6.5,28.1
								c0,12.3,2.2,21.7,6.5,28.1C117.4,71,123.6,74.2,131.8,74.2z"/>
						</g>
						<g>
							<path id="DejaVuSans-2e_00000118383972663316291740000003365957186085757099_" d="M174.3,12.4h10.3V0h-10.3V12.4z"/>
						</g>
						<g>
							<path id="DejaVuSans-36_00000129176258748503105630000009067580047567461011_" d="M228.4,40.4c-4.4,0-7.9-1.5-10.5-4.5
								c-2.6-3-3.9-7.2-3.9-12.4c0-5.2,1.3-9.4,3.9-12.4c2.6-3,6.1-4.6,10.5-4.6c4.4,0,7.9,1.5,10.5,4.6c2.6,3.1,3.9,7.2,3.9,12.4
								c0,5.3-1.3,9.4-3.9,12.4C236.4,38.9,232.9,40.4,228.4,40.4z M248,71.3v-9c-2.5,1.2-5,2.1-7.5,2.7c-2.5,0.6-5,0.9-7.5,0.9
								c-6.5,0-11.5-2.2-14.9-6.6c-3.4-4.4-5.4-11-5.9-19.9c1.9,2.8,4.3,5,7.2,6.5c2.9,1.5,6.1,2.3,9.6,2.3c7.3,0,13.1-2.2,17.4-6.7
								c4.2-4.4,6.4-10.5,6.4-18.1c0-7.5-2.2-13.5-6.6-18c-4.4-4.5-10.3-6.8-17.7-6.8c-8.4,0-14.9,3.2-19.3,9.7
								c-4.5,6.5-6.7,15.8-6.7,28.1c0,11.5,2.7,20.7,8.2,27.6s12.8,10.3,22,10.3c2.5,0,5-0.2,7.5-0.7S245.3,72.3,248,71.3z"/>
						</g>
					</g>
				</g>
			</g>
			<g id="ytick_7">
				<g id="line2d_9">
					<g>
						<g>
							<path id="m9c7da75ffd_00000008133636060135322930000001779852229329902479_" class="st2" d="M529.3,121.8h3.5"/>
						</g>
					</g>
				</g>
				<g id="text_16">
					<g transform="translate(526.334324 125.628514) scale(0.1 -0.1)">
						<g>
							<path id="DejaVuSans-30_00000170979296947004712440000017994804274032287624_" d="M131.8,66.4c-5.1,0-8.9-2.5-11.5-7.5
								c-2.6-5-3.8-12.5-3.8-22.5c0-10,1.3-17.5,3.8-22.5c2.6-5,6.4-7.5,11.5-7.5c5.1,0,8.9,2.5,11.5,7.5c2.6,5,3.8,12.5,3.8,22.5
								c0,10-1.3,17.5-3.8,22.5C140.7,63.9,136.9,66.4,131.8,66.4z M131.8,74.2c8.2,0,14.4-3.2,18.7-9.7c4.3-6.5,6.5-15.8,6.5-28.1
								c0-12.3-2.2-21.6-6.5-28.1c-4.3-6.5-10.6-9.7-18.7-9.7c-8.2,0-14.4,3.2-18.7,9.7c-4.3,6.5-6.5,15.8-6.5,28.1
								c0,12.3,2.2,21.7,6.5,28.1C117.4,71,123.6,74.2,131.8,74.2z"/>
						</g>
						<g>
							<path id="DejaVuSans-2e_00000084510301657115794710000007388976029411316096_" d="M174.3,12.4h10.3V0h-10.3V12.4z"/>
						</g>
						<g>
							<path id="DejaVuSans-38_00000173859820372868092340000017871908234760283540_" d="M227.2,34.6c-4.7,0-8.4-1.3-11.1-3.8
								c-2.7-2.5-4-6-4-10.3c0-4.4,1.3-7.8,4-10.4c2.7-2.5,6.4-3.8,11.1-3.8s8.4,1.3,11.1,3.8c2.7,2.5,4.1,6,4.1,10.3
								c0,4.4-1.3,7.8-4,10.3C235.6,33.4,231.9,34.6,227.2,34.6z M217.3,38.8c-4.2,1-7.5,3-9.9,5.9c-2.4,2.9-3.5,6.4-3.5,10.6
								c0,5.8,2.1,10.4,6.2,13.8c4.2,3.4,9.8,5.1,17.1,5.1c7.3,0,13-1.7,17.1-5.1s6.2-8,6.2-13.8c0-4.2-1.2-7.7-3.5-10.6
								c-2.4-2.9-5.6-4.9-9.8-5.9c4.8-1.1,8.4-3.3,11.1-6.5c2.7-3.2,4-7.2,4-11.8c0-7.1-2.2-12.5-6.5-16.3
								c-4.3-3.8-10.5-5.7-18.5-5.7c-8,0-14.2,1.9-18.5,5.7c-4.3,3.8-6.5,9.2-6.5,16.3c0,4.6,1.3,8.6,4,11.8
								C208.9,35.5,212.6,37.7,217.3,38.8z M213.7,54.4c0-3.8,1.2-6.7,3.5-8.8c2.4-2.1,5.7-3.2,9.9-3.2c4.2,0,7.6,1.1,9.9,3.2
								c2.4,2.1,3.6,5.1,3.6,8.8c0,3.8-1.2,6.7-3.6,8.8c-2.4,2.1-5.7,3.2-9.9,3.2c-4.3,0-7.6-1.1-9.9-3.2
								C214.9,61.1,213.7,58.2,213.7,54.4z"/>
						</g>
					</g>
				</g>
			</g>
			<g id="ytick_8">
				<g id="line2d_10">
					<g>
						<g>
							<path id="m9c7da75ffd_00000081625017047016882110000012490173597932671678_" class="st2" d="M529.3,14.8h3.5"/>
						</g>
					</g>
				</g>
				<g id="text_17">
					<g transform="translate(526.334324 18.559219) scale(0.1 -0.1)">
						<g>
							<path id="DejaVuSans-31_00000116957369141352330680000002757378866828721041_" d="M112.4,8.3h16.1v55.6L111,60.4v9l17.4,3.5
								h9.9V8.3h16.1V0h-42V8.3z"/>
						</g>
						<g>
							<path id="DejaVuSans-2e_00000173127915758510998830000008628720047522733447_" d="M174.3,12.4h10.3V0h-10.3V12.4z"/>
						</g>
						<g>
							<path id="DejaVuSans-30_00000145050017453701903080000010044249637707860134_" d="M227.2,66.4c-5.1,0-8.9-2.5-11.5-7.5
								c-2.6-5-3.8-12.5-3.8-22.5c0-10,1.3-17.5,3.8-22.5c2.6-5,6.4-7.5,11.5-7.5c5.1,0,8.9,2.5,11.5,7.5c2.6,5,3.8,12.5,3.8,22.5
								c0,10-1.3,17.5-3.8,22.5C236.1,63.9,232.3,66.4,227.2,66.4z M227.2,74.2c8.2,0,14.4-3.2,18.7-9.7c4.3-6.5,6.5-15.8,6.5-28.1
								c0-12.3-2.2-21.6-6.5-28.1c-4.3-6.5-10.6-9.7-18.7-9.7c-8.2,0-14.4,3.2-18.7,9.7c-4.3,6.5-6.5,15.8-6.5,28.1
								c0,12.3,2.2,21.7,6.5,28.1C212.8,71,219,74.2,227.2,74.2z"/>
						</g>
					</g>
				</g>
			</g>
		</g>
		<g id="LineCollection_1">
		</g>
		<g id="patch_8">
			<path class="st3" d="M502.6,550.1H516h13.4V14.8H516h-13.4V550.1z"/>
		</g>
	</g>
</g>
</svg>
