<?xml version="1.0" encoding="utf-8" standalone="no"?>
<!DOCTYPE svg PUBLIC "-//W3C//DTD SVG 1.1//EN"
  "http://www.w3.org/Graphics/SVG/1.1/DTD/svg11.dtd">
<svg xmlns:xlink="http://www.w3.org/1999/xlink" width="460.8pt" height="345.6pt" viewBox="0 0 460.8 345.6" xmlns="http://www.w3.org/2000/svg" version="1.1">
 <metadata>
  <rdf:RDF xmlns:dc="http://purl.org/dc/elements/1.1/" xmlns:cc="http://creativecommons.org/ns#" xmlns:rdf="http://www.w3.org/1999/02/22-rdf-syntax-ns#">
   <cc:Work>
    <dc:type rdf:resource="http://purl.org/dc/dcmitype/StillImage"/>
    <dc:date>2025-02-21T08:16:15.017429</dc:date>
    <dc:format>image/svg+xml</dc:format>
    <dc:creator>
     <cc:Agent>
      <dc:title>Matplotlib v3.9.4, https://matplotlib.org/</dc:title>
     </cc:Agent>
    </dc:creator>
   </cc:Work>
  </rdf:RDF>
 </metadata>
 <defs>
  <style type="text/css">*{stroke-linejoin: round; stroke-linecap: butt}</style>
 </defs>
 <g id="figure_1">
  <g id="patch_1">
   <path d="M 0 345.6 
L 460.8 345.6 
L 460.8 0 
L 0 0 
z
" style="fill: #ffffff"/>
  </g>
  <g id="axes_1">
   <g id="patch_2">
    <path d="M 57.6 307.584 
L 414.72 307.584 
L 414.72 41.472 
L 57.6 41.472 
z
" style="fill: #ffffff"/>
   </g>
   <g id="matplotlib.axis_1">
    <g id="xtick_1">
     <g id="line2d_1">
      <path d="M 87.36 307.584 
L 87.36 41.472 
" clip-path="url(#p0eabcbb11a)" style="fill: none; stroke: #b0b0b0; stroke-width: 0.8; stroke-linecap: square"/>
     </g>
     <g id="line2d_2">
      <defs>
       <path id="mb4352028f9" d="M 0 0 
L 0 3.5 
" style="stroke: #000000; stroke-width: 0.8"/>
      </defs>
      <g>
       <use xlink:href="#mb4352028f9" x="87.36" y="307.584" style="stroke: #000000; stroke-width: 0.8"/>
      </g>
     </g>
     <g id="text_1">
      <!-- 0.0 -->
      <g transform="translate(79.408438 322.182437) scale(0.1 -0.1)">
       <defs>
        <path id="DejaVuSans-30" d="M 2034 4250 
Q 1547 4250 1301 3770 
Q 1056 3291 1056 2328 
Q 1056 1369 1301 889 
Q 1547 409 2034 409 
Q 2525 409 2770 889 
Q 3016 1369 3016 2328 
Q 3016 3291 2770 3770 
Q 2525 4250 2034 4250 
z
M 2034 4750 
Q 2819 4750 3233 4129 
Q 3647 3509 3647 2328 
Q 3647 1150 3233 529 
Q 2819 -91 2034 -91 
Q 1250 -91 836 529 
Q 422 1150 422 2328 
Q 422 3509 836 4129 
Q 1250 4750 2034 4750 
z
" transform="scale(0.015625)"/>
        <path id="DejaVuSans-2e" d="M 684 794 
L 1344 794 
L 1344 0 
L 684 0 
L 684 794 
z
" transform="scale(0.015625)"/>
       </defs>
       <use xlink:href="#DejaVuSans-30"/>
       <use xlink:href="#DejaVuSans-2e" x="63.623047"/>
       <use xlink:href="#DejaVuSans-30" x="95.410156"/>
      </g>
     </g>
    </g>
    <g id="xtick_2">
     <g id="line2d_3">
      <path d="M 146.88 307.584 
L 146.88 41.472 
" clip-path="url(#p0eabcbb11a)" style="fill: none; stroke: #b0b0b0; stroke-width: 0.8; stroke-linecap: square"/>
     </g>
     <g id="line2d_4">
      <g>
       <use xlink:href="#mb4352028f9" x="146.88" y="307.584" style="stroke: #000000; stroke-width: 0.8"/>
      </g>
     </g>
     <g id="text_2">
      <!-- 0.2 -->
      <g transform="translate(138.928438 322.182437) scale(0.1 -0.1)">
       <defs>
        <path id="DejaVuSans-32" d="M 1228 531 
L 3431 531 
L 3431 0 
L 469 0 
L 469 531 
Q 828 903 1448 1529 
Q 2069 2156 2228 2338 
Q 2531 2678 2651 2914 
Q 2772 3150 2772 3378 
Q 2772 3750 2511 3984 
Q 2250 4219 1831 4219 
Q 1534 4219 1204 4116 
Q 875 4013 500 3803 
L 500 4441 
Q 881 4594 1212 4672 
Q 1544 4750 1819 4750 
Q 2544 4750 2975 4387 
Q 3406 4025 3406 3419 
Q 3406 3131 3298 2873 
Q 3191 2616 2906 2266 
Q 2828 2175 2409 1742 
Q 1991 1309 1228 531 
z
" transform="scale(0.015625)"/>
       </defs>
       <use xlink:href="#DejaVuSans-30"/>
       <use xlink:href="#DejaVuSans-2e" x="63.623047"/>
       <use xlink:href="#DejaVuSans-32" x="95.410156"/>
      </g>
     </g>
    </g>
    <g id="xtick_3">
     <g id="line2d_5">
      <path d="M 206.4 307.584 
L 206.4 41.472 
" clip-path="url(#p0eabcbb11a)" style="fill: none; stroke: #b0b0b0; stroke-width: 0.8; stroke-linecap: square"/>
     </g>
     <g id="line2d_6">
      <g>
       <use xlink:href="#mb4352028f9" x="206.4" y="307.584" style="stroke: #000000; stroke-width: 0.8"/>
      </g>
     </g>
     <g id="text_3">
      <!-- 0.4 -->
      <g transform="translate(198.448438 322.182437) scale(0.1 -0.1)">
       <defs>
        <path id="DejaVuSans-34" d="M 2419 4116 
L 825 1625 
L 2419 1625 
L 2419 4116 
z
M 2253 4666 
L 3047 4666 
L 3047 1625 
L 3713 1625 
L 3713 1100 
L 3047 1100 
L 3047 0 
L 2419 0 
L 2419 1100 
L 313 1100 
L 313 1709 
L 2253 4666 
z
" transform="scale(0.015625)"/>
       </defs>
       <use xlink:href="#DejaVuSans-30"/>
       <use xlink:href="#DejaVuSans-2e" x="63.623047"/>
       <use xlink:href="#DejaVuSans-34" x="95.410156"/>
      </g>
     </g>
    </g>
    <g id="xtick_4">
     <g id="line2d_7">
      <path d="M 265.92 307.584 
L 265.92 41.472 
" clip-path="url(#p0eabcbb11a)" style="fill: none; stroke: #b0b0b0; stroke-width: 0.8; stroke-linecap: square"/>
     </g>
     <g id="line2d_8">
      <g>
       <use xlink:href="#mb4352028f9" x="265.92" y="307.584" style="stroke: #000000; stroke-width: 0.8"/>
      </g>
     </g>
     <g id="text_4">
      <!-- 0.6 -->
      <g transform="translate(257.968437 322.182437) scale(0.1 -0.1)">
       <defs>
        <path id="DejaVuSans-36" d="M 2113 2584 
Q 1688 2584 1439 2293 
Q 1191 2003 1191 1497 
Q 1191 994 1439 701 
Q 1688 409 2113 409 
Q 2538 409 2786 701 
Q 3034 994 3034 1497 
Q 3034 2003 2786 2293 
Q 2538 2584 2113 2584 
z
M 3366 4563 
L 3366 3988 
Q 3128 4100 2886 4159 
Q 2644 4219 2406 4219 
Q 1781 4219 1451 3797 
Q 1122 3375 1075 2522 
Q 1259 2794 1537 2939 
Q 1816 3084 2150 3084 
Q 2853 3084 3261 2657 
Q 3669 2231 3669 1497 
Q 3669 778 3244 343 
Q 2819 -91 2113 -91 
Q 1303 -91 875 529 
Q 447 1150 447 2328 
Q 447 3434 972 4092 
Q 1497 4750 2381 4750 
Q 2619 4750 2861 4703 
Q 3103 4656 3366 4563 
z
" transform="scale(0.015625)"/>
       </defs>
       <use xlink:href="#DejaVuSans-30"/>
       <use xlink:href="#DejaVuSans-2e" x="63.623047"/>
       <use xlink:href="#DejaVuSans-36" x="95.410156"/>
      </g>
     </g>
    </g>
    <g id="xtick_5">
     <g id="line2d_9">
      <path d="M 325.44 307.584 
L 325.44 41.472 
" clip-path="url(#p0eabcbb11a)" style="fill: none; stroke: #b0b0b0; stroke-width: 0.8; stroke-linecap: square"/>
     </g>
     <g id="line2d_10">
      <g>
       <use xlink:href="#mb4352028f9" x="325.44" y="307.584" style="stroke: #000000; stroke-width: 0.8"/>
      </g>
     </g>
     <g id="text_5">
      <!-- 0.8 -->
      <g transform="translate(317.488437 322.182437) scale(0.1 -0.1)">
       <defs>
        <path id="DejaVuSans-38" d="M 2034 2216 
Q 1584 2216 1326 1975 
Q 1069 1734 1069 1313 
Q 1069 891 1326 650 
Q 1584 409 2034 409 
Q 2484 409 2743 651 
Q 3003 894 3003 1313 
Q 3003 1734 2745 1975 
Q 2488 2216 2034 2216 
z
M 1403 2484 
Q 997 2584 770 2862 
Q 544 3141 544 3541 
Q 544 4100 942 4425 
Q 1341 4750 2034 4750 
Q 2731 4750 3128 4425 
Q 3525 4100 3525 3541 
Q 3525 3141 3298 2862 
Q 3072 2584 2669 2484 
Q 3125 2378 3379 2068 
Q 3634 1759 3634 1313 
Q 3634 634 3220 271 
Q 2806 -91 2034 -91 
Q 1263 -91 848 271 
Q 434 634 434 1313 
Q 434 1759 690 2068 
Q 947 2378 1403 2484 
z
M 1172 3481 
Q 1172 3119 1398 2916 
Q 1625 2713 2034 2713 
Q 2441 2713 2670 2916 
Q 2900 3119 2900 3481 
Q 2900 3844 2670 4047 
Q 2441 4250 2034 4250 
Q 1625 4250 1398 4047 
Q 1172 3844 1172 3481 
z
" transform="scale(0.015625)"/>
       </defs>
       <use xlink:href="#DejaVuSans-30"/>
       <use xlink:href="#DejaVuSans-2e" x="63.623047"/>
       <use xlink:href="#DejaVuSans-38" x="95.410156"/>
      </g>
     </g>
    </g>
    <g id="xtick_6">
     <g id="line2d_11">
      <path d="M 384.96 307.584 
L 384.96 41.472 
" clip-path="url(#p0eabcbb11a)" style="fill: none; stroke: #b0b0b0; stroke-width: 0.8; stroke-linecap: square"/>
     </g>
     <g id="line2d_12">
      <g>
       <use xlink:href="#mb4352028f9" x="384.96" y="307.584" style="stroke: #000000; stroke-width: 0.8"/>
      </g>
     </g>
     <g id="text_6">
      <!-- 1.0 -->
      <g transform="translate(377.008438 322.182437) scale(0.1 -0.1)">
       <defs>
        <path id="DejaVuSans-31" d="M 794 531 
L 1825 531 
L 1825 4091 
L 703 3866 
L 703 4441 
L 1819 4666 
L 2450 4666 
L 2450 531 
L 3481 531 
L 3481 0 
L 794 0 
L 794 531 
z
" transform="scale(0.015625)"/>
       </defs>
       <use xlink:href="#DejaVuSans-31"/>
       <use xlink:href="#DejaVuSans-2e" x="63.623047"/>
       <use xlink:href="#DejaVuSans-30" x="95.410156"/>
      </g>
     </g>
    </g>
    <g id="text_7">
     <!-- False Positive Rate -->
     <g transform="translate(189.693594 335.860562) scale(0.1 -0.1)">
      <defs>
       <path id="DejaVuSans-46" d="M 628 4666 
L 3309 4666 
L 3309 4134 
L 1259 4134 
L 1259 2759 
L 3109 2759 
L 3109 2228 
L 1259 2228 
L 1259 0 
L 628 0 
L 628 4666 
z
" transform="scale(0.015625)"/>
       <path id="DejaVuSans-61" d="M 2194 1759 
Q 1497 1759 1228 1600 
Q 959 1441 959 1056 
Q 959 750 1161 570 
Q 1363 391 1709 391 
Q 2188 391 2477 730 
Q 2766 1069 2766 1631 
L 2766 1759 
L 2194 1759 
z
M 3341 1997 
L 3341 0 
L 2766 0 
L 2766 531 
Q 2569 213 2275 61 
Q 1981 -91 1556 -91 
Q 1019 -91 701 211 
Q 384 513 384 1019 
Q 384 1609 779 1909 
Q 1175 2209 1959 2209 
L 2766 2209 
L 2766 2266 
Q 2766 2663 2505 2880 
Q 2244 3097 1772 3097 
Q 1472 3097 1187 3025 
Q 903 2953 641 2809 
L 641 3341 
Q 956 3463 1253 3523 
Q 1550 3584 1831 3584 
Q 2591 3584 2966 3190 
Q 3341 2797 3341 1997 
z
" transform="scale(0.015625)"/>
       <path id="DejaVuSans-6c" d="M 603 4863 
L 1178 4863 
L 1178 0 
L 603 0 
L 603 4863 
z
" transform="scale(0.015625)"/>
       <path id="DejaVuSans-73" d="M 2834 3397 
L 2834 2853 
Q 2591 2978 2328 3040 
Q 2066 3103 1784 3103 
Q 1356 3103 1142 2972 
Q 928 2841 928 2578 
Q 928 2378 1081 2264 
Q 1234 2150 1697 2047 
L 1894 2003 
Q 2506 1872 2764 1633 
Q 3022 1394 3022 966 
Q 3022 478 2636 193 
Q 2250 -91 1575 -91 
Q 1294 -91 989 -36 
Q 684 19 347 128 
L 347 722 
Q 666 556 975 473 
Q 1284 391 1588 391 
Q 1994 391 2212 530 
Q 2431 669 2431 922 
Q 2431 1156 2273 1281 
Q 2116 1406 1581 1522 
L 1381 1569 
Q 847 1681 609 1914 
Q 372 2147 372 2553 
Q 372 3047 722 3315 
Q 1072 3584 1716 3584 
Q 2034 3584 2315 3537 
Q 2597 3491 2834 3397 
z
" transform="scale(0.015625)"/>
       <path id="DejaVuSans-65" d="M 3597 1894 
L 3597 1613 
L 953 1613 
Q 991 1019 1311 708 
Q 1631 397 2203 397 
Q 2534 397 2845 478 
Q 3156 559 3463 722 
L 3463 178 
Q 3153 47 2828 -22 
Q 2503 -91 2169 -91 
Q 1331 -91 842 396 
Q 353 884 353 1716 
Q 353 2575 817 3079 
Q 1281 3584 2069 3584 
Q 2775 3584 3186 3129 
Q 3597 2675 3597 1894 
z
M 3022 2063 
Q 3016 2534 2758 2815 
Q 2500 3097 2075 3097 
Q 1594 3097 1305 2825 
Q 1016 2553 972 2059 
L 3022 2063 
z
" transform="scale(0.015625)"/>
       <path id="DejaVuSans-20" transform="scale(0.015625)"/>
       <path id="DejaVuSans-50" d="M 1259 4147 
L 1259 2394 
L 2053 2394 
Q 2494 2394 2734 2622 
Q 2975 2850 2975 3272 
Q 2975 3691 2734 3919 
Q 2494 4147 2053 4147 
L 1259 4147 
z
M 628 4666 
L 2053 4666 
Q 2838 4666 3239 4311 
Q 3641 3956 3641 3272 
Q 3641 2581 3239 2228 
Q 2838 1875 2053 1875 
L 1259 1875 
L 1259 0 
L 628 0 
L 628 4666 
z
" transform="scale(0.015625)"/>
       <path id="DejaVuSans-6f" d="M 1959 3097 
Q 1497 3097 1228 2736 
Q 959 2375 959 1747 
Q 959 1119 1226 758 
Q 1494 397 1959 397 
Q 2419 397 2687 759 
Q 2956 1122 2956 1747 
Q 2956 2369 2687 2733 
Q 2419 3097 1959 3097 
z
M 1959 3584 
Q 2709 3584 3137 3096 
Q 3566 2609 3566 1747 
Q 3566 888 3137 398 
Q 2709 -91 1959 -91 
Q 1206 -91 779 398 
Q 353 888 353 1747 
Q 353 2609 779 3096 
Q 1206 3584 1959 3584 
z
" transform="scale(0.015625)"/>
       <path id="DejaVuSans-69" d="M 603 3500 
L 1178 3500 
L 1178 0 
L 603 0 
L 603 3500 
z
M 603 4863 
L 1178 4863 
L 1178 4134 
L 603 4134 
L 603 4863 
z
" transform="scale(0.015625)"/>
       <path id="DejaVuSans-74" d="M 1172 4494 
L 1172 3500 
L 2356 3500 
L 2356 3053 
L 1172 3053 
L 1172 1153 
Q 1172 725 1289 603 
Q 1406 481 1766 481 
L 2356 481 
L 2356 0 
L 1766 0 
Q 1100 0 847 248 
Q 594 497 594 1153 
L 594 3053 
L 172 3053 
L 172 3500 
L 594 3500 
L 594 4494 
L 1172 4494 
z
" transform="scale(0.015625)"/>
       <path id="DejaVuSans-76" d="M 191 3500 
L 800 3500 
L 1894 563 
L 2988 3500 
L 3597 3500 
L 2284 0 
L 1503 0 
L 191 3500 
z
" transform="scale(0.015625)"/>
       <path id="DejaVuSans-52" d="M 2841 2188 
Q 3044 2119 3236 1894 
Q 3428 1669 3622 1275 
L 4263 0 
L 3584 0 
L 2988 1197 
Q 2756 1666 2539 1819 
Q 2322 1972 1947 1972 
L 1259 1972 
L 1259 0 
L 628 0 
L 628 4666 
L 2053 4666 
Q 2853 4666 3247 4331 
Q 3641 3997 3641 3322 
Q 3641 2881 3436 2590 
Q 3231 2300 2841 2188 
z
M 1259 4147 
L 1259 2491 
L 2053 2491 
Q 2509 2491 2742 2702 
Q 2975 2913 2975 3322 
Q 2975 3731 2742 3939 
Q 2509 4147 2053 4147 
L 1259 4147 
z
" transform="scale(0.015625)"/>
      </defs>
      <use xlink:href="#DejaVuSans-46"/>
      <use xlink:href="#DejaVuSans-61" x="48.394531"/>
      <use xlink:href="#DejaVuSans-6c" x="109.673828"/>
      <use xlink:href="#DejaVuSans-73" x="137.457031"/>
      <use xlink:href="#DejaVuSans-65" x="189.556641"/>
      <use xlink:href="#DejaVuSans-20" x="251.080078"/>
      <use xlink:href="#DejaVuSans-50" x="282.867188"/>
      <use xlink:href="#DejaVuSans-6f" x="339.544922"/>
      <use xlink:href="#DejaVuSans-73" x="400.726562"/>
      <use xlink:href="#DejaVuSans-69" x="452.826172"/>
      <use xlink:href="#DejaVuSans-74" x="480.609375"/>
      <use xlink:href="#DejaVuSans-69" x="519.818359"/>
      <use xlink:href="#DejaVuSans-76" x="547.601562"/>
      <use xlink:href="#DejaVuSans-65" x="606.78125"/>
      <use xlink:href="#DejaVuSans-20" x="668.304688"/>
      <use xlink:href="#DejaVuSans-52" x="700.091797"/>
      <use xlink:href="#DejaVuSans-61" x="767.324219"/>
      <use xlink:href="#DejaVuSans-74" x="828.603516"/>
      <use xlink:href="#DejaVuSans-65" x="867.8125"/>
     </g>
    </g>
   </g>
   <g id="matplotlib.axis_2">
    <g id="ytick_1">
     <g id="line2d_13">
      <path d="M 57.6 285.408 
L 414.72 285.408 
" clip-path="url(#p0eabcbb11a)" style="fill: none; stroke: #b0b0b0; stroke-width: 0.8; stroke-linecap: square"/>
     </g>
     <g id="line2d_14">
      <defs>
       <path id="mf6ed97204a" d="M 0 0 
L -3.5 0 
" style="stroke: #000000; stroke-width: 0.8"/>
      </defs>
      <g>
       <use xlink:href="#mf6ed97204a" x="57.6" y="285.408" style="stroke: #000000; stroke-width: 0.8"/>
      </g>
     </g>
     <g id="text_8">
      <!-- 0.0 -->
      <g transform="translate(34.696875 289.207219) scale(0.1 -0.1)">
       <use xlink:href="#DejaVuSans-30"/>
       <use xlink:href="#DejaVuSans-2e" x="63.623047"/>
       <use xlink:href="#DejaVuSans-30" x="95.410156"/>
      </g>
     </g>
    </g>
    <g id="ytick_2">
     <g id="line2d_15">
      <path d="M 57.6 241.056 
L 414.72 241.056 
" clip-path="url(#p0eabcbb11a)" style="fill: none; stroke: #b0b0b0; stroke-width: 0.8; stroke-linecap: square"/>
     </g>
     <g id="line2d_16">
      <g>
       <use xlink:href="#mf6ed97204a" x="57.6" y="241.056" style="stroke: #000000; stroke-width: 0.8"/>
      </g>
     </g>
     <g id="text_9">
      <!-- 0.2 -->
      <g transform="translate(34.696875 244.855219) scale(0.1 -0.1)">
       <use xlink:href="#DejaVuSans-30"/>
       <use xlink:href="#DejaVuSans-2e" x="63.623047"/>
       <use xlink:href="#DejaVuSans-32" x="95.410156"/>
      </g>
     </g>
    </g>
    <g id="ytick_3">
     <g id="line2d_17">
      <path d="M 57.6 196.704 
L 414.72 196.704 
" clip-path="url(#p0eabcbb11a)" style="fill: none; stroke: #b0b0b0; stroke-width: 0.8; stroke-linecap: square"/>
     </g>
     <g id="line2d_18">
      <g>
       <use xlink:href="#mf6ed97204a" x="57.6" y="196.704" style="stroke: #000000; stroke-width: 0.8"/>
      </g>
     </g>
     <g id="text_10">
      <!-- 0.4 -->
      <g transform="translate(34.696875 200.503219) scale(0.1 -0.1)">
       <use xlink:href="#DejaVuSans-30"/>
       <use xlink:href="#DejaVuSans-2e" x="63.623047"/>
       <use xlink:href="#DejaVuSans-34" x="95.410156"/>
      </g>
     </g>
    </g>
    <g id="ytick_4">
     <g id="line2d_19">
      <path d="M 57.6 152.352 
L 414.72 152.352 
" clip-path="url(#p0eabcbb11a)" style="fill: none; stroke: #b0b0b0; stroke-width: 0.8; stroke-linecap: square"/>
     </g>
     <g id="line2d_20">
      <g>
       <use xlink:href="#mf6ed97204a" x="57.6" y="152.352" style="stroke: #000000; stroke-width: 0.8"/>
      </g>
     </g>
     <g id="text_11">
      <!-- 0.6 -->
      <g transform="translate(34.696875 156.151219) scale(0.1 -0.1)">
       <use xlink:href="#DejaVuSans-30"/>
       <use xlink:href="#DejaVuSans-2e" x="63.623047"/>
       <use xlink:href="#DejaVuSans-36" x="95.410156"/>
      </g>
     </g>
    </g>
    <g id="ytick_5">
     <g id="line2d_21">
      <path d="M 57.6 108 
L 414.72 108 
" clip-path="url(#p0eabcbb11a)" style="fill: none; stroke: #b0b0b0; stroke-width: 0.8; stroke-linecap: square"/>
     </g>
     <g id="line2d_22">
      <g>
       <use xlink:href="#mf6ed97204a" x="57.6" y="108" style="stroke: #000000; stroke-width: 0.8"/>
      </g>
     </g>
     <g id="text_12">
      <!-- 0.8 -->
      <g transform="translate(34.696875 111.799219) scale(0.1 -0.1)">
       <use xlink:href="#DejaVuSans-30"/>
       <use xlink:href="#DejaVuSans-2e" x="63.623047"/>
       <use xlink:href="#DejaVuSans-38" x="95.410156"/>
      </g>
     </g>
    </g>
    <g id="ytick_6">
     <g id="line2d_23">
      <path d="M 57.6 63.648 
L 414.72 63.648 
" clip-path="url(#p0eabcbb11a)" style="fill: none; stroke: #b0b0b0; stroke-width: 0.8; stroke-linecap: square"/>
     </g>
     <g id="line2d_24">
      <g>
       <use xlink:href="#mf6ed97204a" x="57.6" y="63.648" style="stroke: #000000; stroke-width: 0.8"/>
      </g>
     </g>
     <g id="text_13">
      <!-- 1.0 -->
      <g transform="translate(34.696875 67.447219) scale(0.1 -0.1)">
       <use xlink:href="#DejaVuSans-31"/>
       <use xlink:href="#DejaVuSans-2e" x="63.623047"/>
       <use xlink:href="#DejaVuSans-30" x="95.410156"/>
      </g>
     </g>
    </g>
    <g id="text_14">
     <!-- True Positive Rate -->
     <g transform="translate(28.617187 219.057687) rotate(-90) scale(0.1 -0.1)">
      <defs>
       <path id="DejaVuSans-54" d="M -19 4666 
L 3928 4666 
L 3928 4134 
L 2272 4134 
L 2272 0 
L 1638 0 
L 1638 4134 
L -19 4134 
L -19 4666 
z
" transform="scale(0.015625)"/>
       <path id="DejaVuSans-72" d="M 2631 2963 
Q 2534 3019 2420 3045 
Q 2306 3072 2169 3072 
Q 1681 3072 1420 2755 
Q 1159 2438 1159 1844 
L 1159 0 
L 581 0 
L 581 3500 
L 1159 3500 
L 1159 2956 
Q 1341 3275 1631 3429 
Q 1922 3584 2338 3584 
Q 2397 3584 2469 3576 
Q 2541 3569 2628 3553 
L 2631 2963 
z
" transform="scale(0.015625)"/>
       <path id="DejaVuSans-75" d="M 544 1381 
L 544 3500 
L 1119 3500 
L 1119 1403 
Q 1119 906 1312 657 
Q 1506 409 1894 409 
Q 2359 409 2629 706 
Q 2900 1003 2900 1516 
L 2900 3500 
L 3475 3500 
L 3475 0 
L 2900 0 
L 2900 538 
Q 2691 219 2414 64 
Q 2138 -91 1772 -91 
Q 1169 -91 856 284 
Q 544 659 544 1381 
z
M 1991 3584 
L 1991 3584 
z
" transform="scale(0.015625)"/>
      </defs>
      <use xlink:href="#DejaVuSans-54"/>
      <use xlink:href="#DejaVuSans-72" x="46.333984"/>
      <use xlink:href="#DejaVuSans-75" x="87.447266"/>
      <use xlink:href="#DejaVuSans-65" x="150.826172"/>
      <use xlink:href="#DejaVuSans-20" x="212.349609"/>
      <use xlink:href="#DejaVuSans-50" x="244.136719"/>
      <use xlink:href="#DejaVuSans-6f" x="300.814453"/>
      <use xlink:href="#DejaVuSans-73" x="361.996094"/>
      <use xlink:href="#DejaVuSans-69" x="414.095703"/>
      <use xlink:href="#DejaVuSans-74" x="441.878906"/>
      <use xlink:href="#DejaVuSans-69" x="481.087891"/>
      <use xlink:href="#DejaVuSans-76" x="508.871094"/>
      <use xlink:href="#DejaVuSans-65" x="568.050781"/>
      <use xlink:href="#DejaVuSans-20" x="629.574219"/>
      <use xlink:href="#DejaVuSans-52" x="661.361328"/>
      <use xlink:href="#DejaVuSans-61" x="728.59375"/>
      <use xlink:href="#DejaVuSans-74" x="789.873047"/>
      <use xlink:href="#DejaVuSans-65" x="829.082031"/>
     </g>
    </g>
   </g>
   <g id="line2d_25">
    <path d="M 87.36 285.408 
L 87.36 283.145143 
L 87.36 271.830857 
L 87.462515 271.830857 
L 87.462515 251.465143 
L 87.565029 251.465143 
L 87.565029 194.893714 
L 87.667544 194.893714 
L 87.667544 190.368 
L 88.077602 190.368 
L 88.077602 183.579429 
L 88.180117 183.579429 
L 88.180117 174.528 
L 88.385146 174.528 
L 88.385146 160.950857 
L 88.69269 160.950857 
L 88.69269 156.425143 
L 88.795205 156.425143 
L 88.795205 147.373714 
L 89.000234 147.373714 
L 89.000234 145.110857 
L 89.102749 145.110857 
L 89.102749 142.848 
L 89.410293 142.848 
L 89.410293 136.059429 
L 89.512807 136.059429 
L 89.512807 133.796571 
L 89.615322 133.796571 
L 89.615322 124.745143 
L 89.717837 124.745143 
L 89.717837 122.482286 
L 89.820351 122.482286 
L 89.820351 120.219429 
L 91.153042 120.219429 
L 91.153042 117.956571 
L 92.280703 117.956571 
L 92.280703 113.430857 
L 92.998305 113.430857 
L 92.998305 108.905143 
L 93.408364 108.905143 
L 93.408364 106.642286 
L 94.228481 106.642286 
L 94.228481 102.116571 
L 94.638539 102.116571 
L 94.638539 99.853714 
L 99.354213 99.853714 
L 99.354213 97.590857 
L 99.969301 97.590857 
L 99.969301 95.328 
L 101.199476 95.328 
L 101.199476 93.065143 
L 103.04474 93.065143 
L 103.04474 90.802286 
L 103.147255 90.802286 
L 103.147255 88.539429 
L 106.632752 88.539429 
L 106.632752 86.276571 
L 106.940296 86.276571 
L 106.940296 84.013714 
L 113.603748 84.013714 
L 113.603748 81.750857 
L 119.549597 81.750857 
L 119.549597 79.488 
L 120.267199 79.488 
L 120.267199 77.225143 
L 130.21112 77.225143 
L 130.21112 74.962286 
L 133.901647 74.962286 
L 133.901647 72.699429 
L 138.309776 72.699429 
L 138.309776 70.436571 
L 140.462584 70.436571 
L 140.462584 68.173714 
L 144.255625 68.173714 
L 144.255625 65.910857 
L 148.458725 65.910857 
L 148.458725 63.648 
L 295.054661 63.648 
L 295.25969 63.648 
L 297.617527 63.648 
L 297.822556 63.648 
L 347.644671 63.648 
L 347.8497 63.648 
L 359.433855 63.648 
L 359.638884 63.648 
L 365.379704 63.648 
L 365.584733 63.648 
L 371.530582 63.648 
L 371.735611 63.648 
L 380.039297 63.648 
L 380.244327 63.648 
L 384.96 63.648 
" clip-path="url(#p0eabcbb11a)" style="fill: none; stroke: #1f77b4; stroke-linecap: square"/>
   </g>
   <g id="line2d_26">
    <path d="M 87.36 285.408 
L 87.36 283.968 
L 87.36 262.368 
L 87.464531 262.368 
L 87.464531 249.408 
L 87.569062 249.408 
L 87.569062 247.968 
L 87.673593 247.968 
L 87.673593 243.648 
L 87.778124 243.648 
L 87.778124 232.128 
L 87.882655 232.128 
L 87.882655 194.688 
L 87.987187 194.688 
L 87.987187 193.248 
L 88.196249 193.248 
L 88.196249 184.608 
L 88.30078 184.608 
L 88.30078 178.848 
L 88.405311 178.848 
L 88.405311 171.648 
L 88.614373 171.648 
L 88.614373 168.768 
L 88.718904 168.768 
L 88.718904 160.128 
L 88.927966 160.128 
L 88.927966 157.248 
L 89.032497 157.248 
L 89.032497 152.928 
L 89.450622 152.928 
L 89.450622 150.048 
L 89.555153 150.048 
L 89.555153 141.408 
L 89.659684 141.408 
L 89.659684 137.088 
L 89.764215 137.088 
L 89.764215 135.648 
L 89.868746 135.648 
L 89.868746 129.888 
L 90.28687 129.888 
L 90.28687 128.448 
L 90.600464 128.448 
L 90.600464 124.128 
L 90.809526 124.128 
L 90.809526 121.248 
L 91.018588 121.248 
L 91.018588 119.808 
L 91.645774 119.808 
L 91.645774 115.488 
L 92.063899 115.488 
L 92.063899 114.048 
L 92.16843 114.048 
L 92.16843 112.608 
L 92.272961 112.608 
L 92.272961 111.168 
L 92.900148 111.168 
L 92.900148 109.728 
L 93.10921 109.728 
L 93.10921 108.288 
L 93.840927 108.288 
L 93.840927 106.848 
L 93.945458 106.848 
L 93.945458 105.408 
L 94.468114 105.408 
L 94.468114 102.528 
L 94.781707 102.528 
L 94.781707 99.648 
L 94.886238 99.648 
L 94.886238 98.208 
L 95.0953 98.208 
L 95.0953 95.328 
L 95.931549 95.328 
L 95.931549 93.888 
L 96.245142 93.888 
L 96.245142 91.008 
L 96.97686 91.008 
L 96.97686 88.128 
L 98.231233 88.128 
L 98.231233 85.248 
L 98.649357 85.248 
L 98.649357 83.808 
L 99.067482 83.808 
L 99.067482 82.368 
L 99.381075 82.368 
L 99.381075 79.488 
L 101.053572 79.488 
L 101.053572 76.608 
L 104.084974 76.608 
L 104.084974 75.168 
L 104.398567 75.168 
L 104.398567 73.728 
L 110.252308 73.728 
L 110.252308 72.288 
L 118.092139 72.288 
L 118.092139 70.848 
L 120.287292 70.848 
L 120.287292 69.408 
L 123.423224 69.408 
L 123.423224 67.968 
L 128.022592 67.968 
L 128.022592 66.528 
L 151.019431 66.528 
L 151.019431 65.088 
L 151.228493 65.088 
L 151.228493 63.648 
L 343.670221 63.648 
L 343.879283 63.648 
L 348.583182 63.648 
L 348.792244 63.648 
L 371.684552 63.648 
L 371.893614 63.648 
L 379.315321 63.648 
L 379.524384 63.648 
L 384.96 63.648 
" clip-path="url(#p0eabcbb11a)" style="fill: none; stroke: #ff7f0e; stroke-linecap: square"/>
   </g>
   <g id="line2d_27">
    <path d="M 87.36 285.408 
L 87.36 249.009702 
L 87.471377 249.009702 
L 87.471377 245.639489 
L 87.582754 245.639489 
L 87.582754 230.810553 
L 87.694132 230.810553 
L 87.694132 228.114383 
L 87.805509 228.114383 
L 87.805509 227.44034 
L 87.916886 227.44034 
L 87.916886 212.611404 
L 88.028263 212.611404 
L 88.028263 207.219064 
L 88.139641 207.219064 
L 88.139641 205.870979 
L 88.251018 205.870979 
L 88.251018 205.196936 
L 88.473772 205.196936 
L 88.473772 198.456511 
L 88.58515 198.456511 
L 88.58515 192.390128 
L 88.696527 192.390128 
L 88.696527 188.345872 
L 88.807904 188.345872 
L 88.807904 182.953532 
L 88.919281 182.953532 
L 88.919281 178.909277 
L 89.142036 178.909277 
L 89.142036 172.842894 
L 89.253413 172.842894 
L 89.253413 171.494809 
L 89.36479 171.494809 
L 89.36479 170.146723 
L 89.476168 170.146723 
L 89.476168 163.406298 
L 89.587545 163.406298 
L 89.587545 160.710128 
L 89.810299 160.710128 
L 89.810299 158.688 
L 89.921677 158.688 
L 89.921677 157.339915 
L 90.255808 157.339915 
L 90.255808 155.99183 
L 90.367186 155.99183 
L 90.367186 155.317787 
L 90.58994 155.317787 
L 90.58994 153.969702 
L 90.701317 153.969702 
L 90.701317 151.273532 
L 90.812695 151.273532 
L 90.812695 147.229277 
L 90.924072 147.229277 
L 90.924072 146.555234 
L 91.035449 146.555234 
L 91.035449 143.185021 
L 91.258204 143.185021 
L 91.258204 142.510979 
L 91.369581 142.510979 
L 91.369581 141.836936 
L 91.480958 141.836936 
L 91.480958 141.162894 
L 91.592335 141.162894 
L 91.592335 139.814809 
L 91.703713 139.814809 
L 91.703713 138.466723 
L 91.81509 138.466723 
L 91.81509 135.770553 
L 92.149222 135.770553 
L 92.149222 134.422468 
L 92.371976 134.422468 
L 92.371976 131.726298 
L 92.483353 131.726298 
L 92.483353 131.052255 
L 92.928862 131.052255 
L 92.928862 129.70417 
L 93.04024 129.70417 
L 93.04024 129.030128 
L 93.151617 129.030128 
L 93.151617 128.356085 
L 93.262994 128.356085 
L 93.262994 127.682043 
L 93.374371 127.682043 
L 93.374371 127.008 
L 93.485749 127.008 
L 93.485749 124.985872 
L 93.597126 124.985872 
L 93.597126 124.31183 
L 93.708503 124.31183 
L 93.708503 123.637787 
L 93.81988 123.637787 
L 93.81988 120.941617 
L 93.931257 120.941617 
L 93.931257 120.267574 
L 94.042635 120.267574 
L 94.042635 119.593532 
L 94.599521 119.593532 
L 94.599521 118.245447 
L 94.822275 118.245447 
L 94.822275 116.223319 
L 95.490539 116.223319 
L 95.490539 114.201191 
L 95.824671 114.201191 
L 95.824671 113.527149 
L 96.047425 113.527149 
L 96.047425 112.179064 
L 96.715689 112.179064 
L 96.715689 111.505021 
L 96.938443 111.505021 
L 96.938443 110.156936 
L 97.272575 110.156936 
L 97.272575 108.808851 
L 97.718084 108.808851 
L 97.718084 106.786723 
L 97.940838 106.786723 
L 97.940838 106.112681 
L 99.054611 106.112681 
L 99.054611 105.438638 
L 100.168383 105.438638 
L 100.168383 104.764596 
L 101.282156 104.764596 
L 101.282156 104.090553 
L 101.616287 104.090553 
L 101.616287 103.416511 
L 101.839042 103.416511 
L 101.839042 102.742468 
L 102.061796 102.742468 
L 102.061796 102.068426 
L 102.284551 102.068426 
L 102.284551 100.046298 
L 102.395928 100.046298 
L 102.395928 99.372255 
L 102.841437 99.372255 
L 102.841437 98.698213 
L 103.286946 98.698213 
L 103.286946 98.02417 
L 104.177964 98.02417 
L 104.177964 97.350128 
L 104.73485 97.350128 
L 104.73485 96.002043 
L 105.068982 96.002043 
L 105.068982 95.328 
L 106.628263 95.328 
L 106.628263 94.653957 
L 107.073772 94.653957 
L 107.073772 93.979915 
L 108.076168 93.979915 
L 108.076168 93.305872 
L 108.744431 93.305872 
L 108.744431 92.63183 
L 109.078563 92.63183 
L 109.078563 91.957787 
L 110.080958 91.957787 
L 110.080958 91.283745 
L 110.303713 91.283745 
L 110.303713 90.609702 
L 115.538443 90.609702 
L 115.538443 89.93566 
L 116.206707 89.93566 
L 116.206707 89.261617 
L 116.763593 89.261617 
L 116.763593 88.587574 
L 118.768383 88.587574 
L 118.768383 87.913532 
L 119.770778 87.913532 
L 119.770778 87.239489 
L 120.661796 87.239489 
L 120.661796 86.565447 
L 121.218683 86.565447 
L 121.218683 84.543319 
L 122.221078 84.543319 
L 122.221078 83.869277 
L 125.339641 83.869277 
L 125.339641 83.195234 
L 126.787545 83.195234 
L 126.787545 82.521191 
L 130.128862 82.521191 
L 130.128862 81.847149 
L 132.467784 81.847149 
L 132.467784 80.499064 
L 133.247425 80.499064 
L 133.247425 79.825021 
L 133.581557 79.825021 
L 133.581557 79.150979 
L 134.918084 79.150979 
L 134.918084 78.476936 
L 135.920479 78.476936 
L 135.920479 77.802894 
L 136.811497 77.802894 
L 136.811497 77.128851 
L 137.702515 77.128851 
L 137.702515 76.454809 
L 140.821078 76.454809 
L 140.821078 75.780766 
L 141.600719 75.780766 
L 141.600719 75.106723 
L 141.712096 75.106723 
L 141.712096 74.432681 
L 142.491737 74.432681 
L 142.491737 73.758638 
L 143.494132 73.758638 
L 143.494132 73.084596 
L 146.278563 73.084596 
L 146.278563 72.410553 
L 157.082156 72.410553 
L 157.082156 71.736511 
L 158.975569 71.736511 
L 158.975569 71.062468 
L 159.977964 71.062468 
L 159.977964 70.388426 
L 160.868982 70.388426 
L 160.868982 69.714383 
L 161.091737 69.714383 
L 161.091737 69.04034 
L 161.537246 69.04034 
L 161.537246 68.366298 
L 172.006707 68.366298 
L 172.006707 67.692255 
L 173.343234 67.692255 
L 173.343234 67.018213 
L 189.604311 67.018213 
L 189.604311 66.34417 
L 209.429461 66.34417 
L 209.429461 65.670128 
L 213.216287 65.670128 
L 213.216287 64.996085 
L 235.380359 64.996085 
L 235.380359 64.322043 
L 250.973174 64.322043 
L 250.973174 63.648 
L 384.96 63.648 
L 384.96 63.648 
" clip-path="url(#p0eabcbb11a)" style="fill: none; stroke: #2ca02c; stroke-linecap: square"/>
   </g>
   <g id="line2d_28">
    <path d="M 87.36 285.408 
L 87.460303 285.408 
L 87.460303 226.706824 
L 87.560607 226.706824 
L 87.560607 213.662118 
L 87.66091 213.662118 
L 87.66091 207.139765 
L 87.861517 207.139765 
L 87.861517 174.528 
L 87.96182 174.528 
L 87.96182 128.871529 
L 88.162427 128.871529 
L 88.162427 122.349176 
L 88.463337 122.349176 
L 88.463337 115.826824 
L 90.469403 115.826824 
L 90.469403 109.304471 
L 91.372133 109.304471 
L 91.372133 102.782118 
L 97.89185 102.782118 
L 97.89185 96.259765 
L 98.694277 96.259765 
L 98.694277 89.737412 
L 104.913084 89.737412 
L 104.913084 83.215059 
L 112.235228 83.215059 
L 112.235228 76.692706 
L 139.517735 76.692706 
L 139.517735 70.170353 
L 160.581436 70.170353 
L 160.581436 63.648 
L 291.17638 63.648 
L 291.376987 63.648 
L 318.659494 63.648 
L 318.860101 63.648 
L 320.665561 63.648 
L 320.866168 63.648 
L 323.774965 63.648 
L 323.975571 63.648 
L 324.477088 63.648 
L 324.777998 63.648 
L 345.340182 63.648 
L 345.540789 63.648 
L 363.093873 63.648 
L 363.294479 63.648 
L 384.96 63.648 
" clip-path="url(#p0eabcbb11a)" style="fill: none; stroke: #d62728; stroke-linecap: square"/>
   </g>
   <g id="line2d_29">
    <path d="M 87.36 285.408 
L 87.36 262.765838 
L 87.471544 262.765838 
L 87.471544 262.099892 
L 87.583088 262.099892 
L 87.583088 248.780973 
L 87.694633 248.780973 
L 87.694633 248.115027 
L 87.806177 248.115027 
L 87.806177 247.449081 
L 88.029265 247.449081 
L 88.029265 238.791784 
L 88.14081 238.791784 
L 88.14081 234.796108 
L 88.252354 234.796108 
L 88.252354 230.800432 
L 88.698531 230.800432 
L 88.698531 218.147459 
L 88.921619 218.147459 
L 88.921619 216.815568 
L 89.144708 216.815568 
L 89.144708 215.483676 
L 89.256252 215.483676 
L 89.256252 203.496649 
L 89.367796 203.496649 
L 89.367796 201.498811 
L 89.47934 201.498811 
L 89.47934 198.835027 
L 89.590885 198.835027 
L 89.590885 192.841514 
L 89.813973 192.841514 
L 89.813973 191.509622 
L 89.925517 191.509622 
L 89.925517 190.843676 
L 90.037061 190.843676 
L 90.037061 190.17773 
L 90.26015 190.17773 
L 90.26015 188.179892 
L 90.371694 188.179892 
L 90.371694 186.848 
L 90.483238 186.848 
L 90.483238 185.516108 
L 90.594783 185.516108 
L 90.594783 182.186378 
L 90.817871 182.186378 
L 90.817871 180.854486 
L 91.04096 180.854486 
L 91.04096 176.858811 
L 91.152504 176.858811 
L 91.152504 174.860973 
L 91.375592 174.860973 
L 91.375592 173.529081 
L 91.710225 173.529081 
L 91.710225 171.531243 
L 91.933313 171.531243 
L 91.933313 170.865297 
L 92.156402 170.865297 
L 92.156402 170.199351 
L 92.37949 170.199351 
L 92.37949 167.535568 
L 92.602579 167.535568 
L 92.602579 166.869622 
L 92.937211 166.869622 
L 92.937211 166.203676 
L 93.048756 166.203676 
L 93.048756 164.871784 
L 93.1603 164.871784 
L 93.1603 163.539892 
L 93.494933 163.539892 
L 93.494933 162.873946 
L 93.606477 162.873946 
L 93.606477 160.876108 
L 93.718021 160.876108 
L 93.718021 159.544216 
L 93.829565 159.544216 
L 93.829565 158.87827 
L 93.941109 158.87827 
L 93.941109 157.546378 
L 94.275742 157.546378 
L 94.275742 156.880432 
L 94.498831 156.880432 
L 94.498831 156.214486 
L 94.721919 156.214486 
L 94.721919 152.218811 
L 94.833463 152.218811 
L 94.833463 151.552865 
L 95.056552 151.552865 
L 95.056552 150.220973 
L 95.168096 150.220973 
L 95.168096 148.889081 
L 95.27964 148.889081 
L 95.27964 146.891243 
L 95.391184 146.891243 
L 95.391184 146.225297 
L 95.502729 146.225297 
L 95.502729 144.893405 
L 95.614273 144.893405 
L 95.614273 142.229622 
L 96.283538 142.229622 
L 96.283538 141.563676 
L 96.506627 141.563676 
L 96.506627 139.565838 
L 96.618171 139.565838 
L 96.618171 138.899892 
L 96.841259 138.899892 
L 96.841259 138.233946 
L 96.952804 138.233946 
L 96.952804 136.902054 
L 98.849055 136.902054 
L 98.849055 135.570162 
L 99.072144 135.570162 
L 99.072144 134.904216 
L 99.852954 134.904216 
L 99.852954 134.23827 
L 101.07994 134.23827 
L 101.07994 133.572324 
L 101.526117 133.572324 
L 101.526117 132.240432 
L 101.637661 132.240432 
L 101.637661 131.574486 
L 101.972294 131.574486 
L 101.972294 130.908541 
L 102.418471 130.908541 
L 102.418471 129.576649 
L 102.641559 129.576649 
L 102.641559 128.910703 
L 104.091634 128.910703 
L 104.091634 127.578811 
L 104.426267 127.578811 
L 104.426267 126.912865 
L 104.537811 126.912865 
L 104.537811 125.580973 
L 105.095532 125.580973 
L 105.095532 124.249081 
L 105.653253 124.249081 
L 105.653253 122.917189 
L 105.987886 122.917189 
L 105.987886 121.585297 
L 106.768696 121.585297 
L 106.768696 120.253405 
L 107.103328 120.253405 
L 107.103328 119.587459 
L 107.214873 119.587459 
L 107.214873 118.921514 
L 107.326417 118.921514 
L 107.326417 118.255568 
L 107.437961 118.255568 
L 107.437961 117.589622 
L 107.549505 117.589622 
L 107.549505 116.923676 
L 107.884138 116.923676 
L 107.884138 116.25773 
L 108.776492 116.25773 
L 108.776492 115.591784 
L 109.445757 115.591784 
L 109.445757 114.259892 
L 110.449655 114.259892 
L 110.449655 113.593946 
L 110.561199 113.593946 
L 110.561199 112.928 
L 110.672744 112.928 
L 110.672744 112.262054 
L 110.895832 112.262054 
L 110.895832 110.930162 
L 111.007376 110.930162 
L 111.007376 110.264216 
L 111.89973 110.264216 
L 111.89973 108.932324 
L 112.011274 108.932324 
L 112.011274 107.600432 
L 112.345907 107.600432 
L 112.345907 105.602595 
L 112.457451 105.602595 
L 112.457451 104.936649 
L 112.68054 104.936649 
L 112.68054 104.270703 
L 113.015172 104.270703 
L 113.015172 103.604757 
L 114.465247 103.604757 
L 114.465247 102.938811 
L 114.688336 102.938811 
L 114.688336 102.272865 
L 116.473043 102.272865 
L 116.473043 101.606919 
L 117.365397 101.606919 
L 117.365397 100.275027 
L 117.811574 100.275027 
L 117.811574 98.943135 
L 118.257751 98.943135 
L 118.257751 98.277189 
L 118.927016 98.277189 
L 118.927016 97.611243 
L 119.261649 97.611243 
L 119.261649 96.945297 
L 122.273343 96.945297 
L 122.273343 96.279351 
L 123.946507 96.279351 
L 123.946507 95.613405 
L 125.061949 95.613405 
L 125.061949 94.947459 
L 125.173493 94.947459 
L 125.173493 94.281514 
L 126.177391 94.281514 
L 126.177391 93.615568 
L 126.40048 93.615568 
L 126.40048 92.949622 
L 127.404378 92.949622 
L 127.404378 92.283676 
L 129.858351 92.283676 
L 129.858351 91.61773 
L 130.416072 91.61773 
L 130.416072 90.951784 
L 130.527616 90.951784 
L 130.527616 90.285838 
L 130.750705 90.285838 
L 130.750705 89.619892 
L 130.862249 89.619892 
L 130.862249 88.953946 
L 132.312324 88.953946 
L 132.312324 88.288 
L 132.981589 88.288 
L 132.981589 87.622054 
L 140.789685 87.622054 
L 140.789685 86.956108 
L 141.905127 86.956108 
L 141.905127 86.290162 
L 142.23976 86.290162 
L 142.23976 85.624216 
L 144.582189 85.624216 
L 144.582189 84.95827 
L 145.809175 84.95827 
L 145.809175 84.292324 
L 147.705427 84.292324 
L 147.705427 83.626378 
L 150.605577 83.626378 
L 150.605577 82.960432 
L 152.055652 82.960432 
L 152.055652 81.628541 
L 155.401979 81.628541 
L 155.401979 80.962595 
L 158.85985 80.962595 
L 158.85985 79.630703 
L 162.206177 79.630703 
L 162.206177 78.298811 
L 162.763898 78.298811 
L 162.763898 77.632865 
L 163.321619 77.632865 
L 163.321619 76.966919 
L 166.110225 76.966919 
L 166.110225 76.300973 
L 167.448756 76.300973 
L 167.448756 75.635027 
L 168.006477 75.635027 
L 168.006477 74.969081 
L 169.456552 74.969081 
L 169.456552 74.303135 
L 169.67964 74.303135 
L 169.67964 73.637189 
L 171.352804 73.637189 
L 171.352804 72.971243 
L 185.184288 72.971243 
L 185.184288 72.305297 
L 188.642159 72.305297 
L 188.642159 71.639351 
L 199.573493 71.639351 
L 199.573493 70.973405 
L 199.908126 70.973405 
L 199.908126 70.307459 
L 203.477541 70.307459 
L 203.477541 69.641514 
L 224.224768 69.641514 
L 224.224768 68.975568 
L 229.021169 68.975568 
L 229.021169 68.309622 
L 235.602279 68.309622 
L 235.602279 67.643676 
L 239.952504 67.643676 
L 239.952504 66.97773 
L 269.957901 66.97773 
L 269.957901 66.311784 
L 276.650555 66.311784 
L 276.650555 65.645838 
L 291.597481 65.645838 
L 291.597481 64.979892 
L 300.409475 64.979892 
L 300.409475 64.313946 
L 354.508426 64.313946 
L 354.508426 63.648 
L 384.96 63.648 
L 384.96 63.648 
" clip-path="url(#p0eabcbb11a)" style="fill: none; stroke: #9467bd; stroke-linecap: square"/>
   </g>
   <g id="line2d_30">
    <path d="M 87.36 285.408 
L 87.36 276.365573 
L 87.660606 264.125215 
L 87.660606 246.371182 
L 87.961212 243.834892 
L 87.961212 216.707612 
L 88.261818 216.156245 
L 88.261818 196.858383 
L 88.562424 196.858383 
L 88.562424 185.610486 
L 88.86303 185.389939 
L 88.86303 180.317359 
L 89.163636 180.317359 
L 89.163636 180.207085 
L 89.163636 173.370128 
L 89.464242 173.259855 
L 89.464242 163.224967 
L 89.764848 163.224967 
L 89.764848 152.307891 
L 90.065455 152.307891 
L 90.065455 150.433241 
L 90.366061 150.433241 
L 90.366061 138.303157 
L 90.666667 138.303157 
L 90.666667 137.090148 
L 90.967273 137.090148 
L 90.967273 134.333311 
L 91.267879 134.333311 
L 91.267879 134.00249 
L 91.568485 134.00249 
L 91.568485 129.922371 
L 91.869091 129.922371 
L 91.869091 129.481277 
L 92.169697 129.481277 
L 92.169697 129.150456 
L 92.470303 129.150456 
L 92.470303 128.047722 
L 93.071515 127.937448 
L 93.071515 127.827175 
L 93.372121 127.827175 
L 93.372121 126.173072 
L 93.672727 126.173072 
L 93.672727 124.188149 
L 93.973333 124.188149 
L 93.973333 123.967602 
L 94.273939 123.967602 
L 94.273939 121.651859 
L 94.875152 121.541585 
L 94.875152 121.431312 
L 95.175758 121.431312 
L 95.175758 120.218303 
L 95.476364 120.218303 
L 95.476364 119.556662 
L 95.77697 119.556662 
L 95.77697 116.910098 
L 96.077576 116.910098 
L 96.077576 116.248457 
L 96.378182 116.248457 
L 96.378182 115.807364 
L 96.678788 115.807364 
L 96.678788 114.814902 
L 96.979394 114.814902 
L 96.979394 112.609432 
L 97.28 112.609432 
L 97.28 111.396424 
L 97.580606 111.396424 
L 97.580606 110.514236 
L 97.881212 110.514236 
L 97.881212 109.632048 
L 98.482424 109.632048 
L 98.482424 107.536851 
L 99.083636 107.426578 
L 99.083636 106.654663 
L 99.384242 106.654663 
L 99.384242 106.434116 
L 99.684848 106.434116 
L 99.684848 105.882749 
L 99.985455 105.882749 
L 99.985455 104.780014 
L 100.586667 104.66974 
L 100.586667 102.13345 
L 100.887273 102.13345 
L 100.887273 101.582083 
L 101.187879 101.582083 
L 101.187879 100.258801 
L 101.789091 100.258801 
L 101.789091 98.935519 
L 102.390303 98.825245 
L 102.390303 98.714972 
L 102.690909 98.714972 
L 102.690909 98.053331 
L 102.991515 98.053331 
L 102.991515 97.281416 
L 103.292121 97.281416 
L 103.292121 96.178681 
L 103.592727 96.178681 
L 103.592727 95.958134 
L 104.193939 95.847861 
L 104.193939 95.406767 
L 105.095758 95.406767 
L 105.095758 95.075946 
L 105.997576 95.075946 
L 105.997576 94.634852 
L 106.298182 94.634852 
L 106.298182 94.414305 
L 106.598788 94.414305 
L 106.598788 93.421844 
L 106.899394 93.421844 
L 106.899394 93.091023 
L 107.2 93.091023 
L 107.2 92.539656 
L 107.500606 92.539656 
L 107.500606 90.995827 
L 107.801212 90.995827 
L 107.801212 90.665006 
L 108.101818 90.665006 
L 108.101818 90.334186 
L 108.402424 90.334186 
L 108.402424 90.113639 
L 109.304242 90.003365 
L 109.304242 89.672545 
L 109.905455 89.562272 
L 109.905455 89.010904 
L 110.206061 89.010904 
L 110.206061 88.459537 
L 110.506667 88.459537 
L 110.506667 88.128716 
L 111.107879 88.018443 
L 111.107879 87.577349 
L 111.408485 87.577349 
L 111.408485 87.356802 
L 112.009697 87.246528 
L 112.009697 86.915708 
L 112.610909 86.915708 
L 112.610909 86.36434 
L 112.911515 86.36434 
L 112.911515 85.592426 
L 113.212121 85.592426 
L 113.212121 84.820511 
L 113.813333 84.710238 
L 113.813333 84.599964 
L 115.015758 84.489691 
L 115.015758 84.269144 
L 115.61697 84.15887 
L 115.61697 84.048597 
L 116.518788 83.938323 
L 116.518788 83.82805 
L 117.12 83.717776 
L 117.12 83.607503 
L 118.021818 83.497229 
L 118.021818 83.166409 
L 118.322424 83.166409 
L 118.322424 82.945862 
L 119.825455 82.835588 
L 119.825455 82.615041 
L 120.426667 82.504768 
L 120.426667 82.173947 
L 121.027879 82.173947 
L 121.027879 81.62258 
L 121.629091 81.62258 
L 121.629091 81.402033 
L 122.831515 81.291759 
L 122.831515 80.960939 
L 124.033939 80.960939 
L 124.033939 80.740392 
L 124.935758 80.740392 
L 124.935758 80.299298 
L 125.236364 80.299298 
L 125.236364 79.968477 
L 125.837576 79.968477 
L 125.837576 79.74793 
L 126.138182 79.74793 
L 126.138182 79.527383 
L 126.739394 79.527383 
L 126.739394 79.086289 
L 127.04 79.086289 
L 127.04 78.755469 
L 127.340606 78.755469 
L 127.340606 78.534922 
L 127.941818 78.424648 
L 127.941818 78.204101 
L 128.242424 78.204101 
L 128.242424 77.983554 
L 128.843636 77.983554 
L 128.843636 77.763007 
L 129.144242 77.763007 
L 129.144242 77.54246 
L 129.444848 77.54246 
L 129.444848 77.101366 
L 129.745455 77.101366 
L 129.745455 76.880819 
L 130.046061 76.880819 
L 130.046061 76.549999 
L 131.248485 76.439726 
L 131.248485 76.329452 
L 131.849697 76.219179 
L 131.849697 76.108905 
L 134.254545 75.998632 
L 134.254545 75.888358 
L 134.555152 75.888358 
L 134.555152 75.557538 
L 136.659394 75.557538 
L 136.659394 75.336991 
L 137.260606 75.226717 
L 137.260606 75.00617 
L 138.46303 74.895897 
L 138.46303 74.785623 
L 139.665455 74.785623 
L 139.665455 74.454803 
L 140.266667 74.344529 
L 140.266667 74.234256 
L 142.070303 74.123982 
L 142.070303 73.903435 
L 142.972121 73.903435 
L 142.972121 73.682888 
L 143.272727 73.682888 
L 143.272727 73.462341 
L 143.873939 73.352068 
L 143.873939 73.241794 
L 144.775758 73.131521 
L 144.775758 72.910974 
L 146.278788 72.8007 
L 146.278788 72.690427 
L 148.38303 72.580153 
L 148.38303 72.46988 
L 149.585455 72.359606 
L 149.585455 72.139059 
L 150.186667 72.028786 
L 150.186667 71.808239 
L 151.689697 71.697965 
L 151.689697 71.587692 
L 152.290909 71.587692 
L 152.290909 71.367145 
L 154.094545 71.367145 
L 154.094545 71.036324 
L 157.401212 70.926051 
L 157.401212 70.815777 
L 158.002424 70.815777 
L 158.002424 70.59523 
L 158.904242 70.484957 
L 158.904242 70.374683 
L 159.806061 70.26441 
L 159.806061 70.154136 
L 164.014545 70.043863 
L 164.014545 69.713042 
L 167.020606 69.602769 
L 167.020606 69.492495 
L 168.824242 69.382222 
L 168.824242 69.271948 
L 169.726061 69.161675 
L 169.726061 69.051401 
L 171.529697 68.941128 
L 171.529697 68.830854 
L 174.535758 68.720581 
L 174.535758 68.610307 
L 175.437576 68.500034 
L 175.437576 68.38976 
L 177.842424 68.279487 
L 177.842424 68.169213 
L 179.044848 68.05894 
L 179.044848 67.948666 
L 180.547879 67.838393 
L 180.547879 67.728119 
L 183.253333 67.617846 
L 183.253333 67.507572 
L 187.461818 67.397299 
L 187.461818 67.287025 
L 188.363636 67.176752 
L 188.363636 67.066478 
L 196.179394 66.956205 
L 196.179394 66.845931 
L 197.98303 66.735658 
L 197.98303 66.625384 
L 208.804848 66.515111 
L 208.804848 66.404837 
L 219.025455 66.294564 
L 219.025455 66.18429 
L 222.933333 66.074017 
L 222.933333 65.963743 
L 236.761212 65.85347 
L 236.761212 65.743196 
L 250.589091 65.632923 
L 250.589091 65.522649 
L 257.50303 65.412376 
L 257.50303 65.302102 
L 261.711515 65.191829 
L 261.711515 65.081555 
L 270.128485 64.971282 
L 270.128485 64.861008 
L 272.833939 64.750735 
L 272.833939 64.640461 
L 275.238788 64.530188 
L 275.238788 64.419914 
L 282.753939 64.309641 
L 282.753939 64.199367 
L 312.513939 64.089094 
L 312.513939 63.97882 
L 358.506667 63.868547 
L 358.506667 63.758273 
L 384.96 63.648 
L 384.96 63.648 
" clip-path="url(#p0eabcbb11a)" style="fill: none; stroke: #8c564b; stroke-linecap: square"/>
   </g>
   <g id="line2d_31">
    <path d="M 87.36 285.408 
L 87.36 280.128 
L 87.36 95.328 
L 87.460575 95.328 
L 87.460575 90.048 
L 87.561149 90.048 
L 87.561149 84.768 
L 87.661724 84.768 
L 87.661724 79.488 
L 87.862873 79.488 
L 87.862873 74.208 
L 87.963447 74.208 
L 87.963447 68.928 
L 90.578385 68.928 
L 90.578385 63.648 
L 297.359594 63.648 
L 297.560743 63.648 
L 362.431308 63.648 
L 362.632457 63.648 
L 384.96 63.648 
" clip-path="url(#p0eabcbb11a)" style="fill: none; stroke: #e377c2; stroke-linecap: square"/>
   </g>
   <g id="line2d_32">
    <path d="M 87.36 285.408 
L 384.96 63.648 
" clip-path="url(#p0eabcbb11a)" style="fill: none; stroke-dasharray: 5.55,2.4; stroke-dashoffset: 0; stroke: #ff0000; stroke-width: 1.5"/>
   </g>
   <g id="patch_3">
    <path d="M 57.6 307.584 
L 57.6 41.472 
" style="fill: none; stroke: #000000; stroke-width: 0.8; stroke-linejoin: miter; stroke-linecap: square"/>
   </g>
   <g id="patch_4">
    <path d="M 414.72 307.584 
L 414.72 41.472 
" style="fill: none; stroke: #000000; stroke-width: 0.8; stroke-linejoin: miter; stroke-linecap: square"/>
   </g>
   <g id="patch_5">
    <path d="M 57.6 307.584 
L 414.72 307.584 
" style="fill: none; stroke: #000000; stroke-width: 0.8; stroke-linejoin: miter; stroke-linecap: square"/>
   </g>
   <g id="patch_6">
    <path d="M 57.6 41.472 
L 414.72 41.472 
" style="fill: none; stroke: #000000; stroke-width: 0.8; stroke-linejoin: miter; stroke-linecap: square"/>
   </g>
   <g id="text_15">
    <!-- Receiver Operating Characteristic(ROC) curves -->
    <g transform="translate(95.049375 35.472) scale(0.12 -0.12)">
     <defs>
      <path id="DejaVuSans-63" d="M 3122 3366 
L 3122 2828 
Q 2878 2963 2633 3030 
Q 2388 3097 2138 3097 
Q 1578 3097 1268 2742 
Q 959 2388 959 1747 
Q 959 1106 1268 751 
Q 1578 397 2138 397 
Q 2388 397 2633 464 
Q 2878 531 3122 666 
L 3122 134 
Q 2881 22 2623 -34 
Q 2366 -91 2075 -91 
Q 1284 -91 818 406 
Q 353 903 353 1747 
Q 353 2603 823 3093 
Q 1294 3584 2113 3584 
Q 2378 3584 2631 3529 
Q 2884 3475 3122 3366 
z
" transform="scale(0.015625)"/>
      <path id="DejaVuSans-4f" d="M 2522 4238 
Q 1834 4238 1429 3725 
Q 1025 3213 1025 2328 
Q 1025 1447 1429 934 
Q 1834 422 2522 422 
Q 3209 422 3611 934 
Q 4013 1447 4013 2328 
Q 4013 3213 3611 3725 
Q 3209 4238 2522 4238 
z
M 2522 4750 
Q 3503 4750 4090 4092 
Q 4678 3434 4678 2328 
Q 4678 1225 4090 567 
Q 3503 -91 2522 -91 
Q 1538 -91 948 565 
Q 359 1222 359 2328 
Q 359 3434 948 4092 
Q 1538 4750 2522 4750 
z
" transform="scale(0.015625)"/>
      <path id="DejaVuSans-70" d="M 1159 525 
L 1159 -1331 
L 581 -1331 
L 581 3500 
L 1159 3500 
L 1159 2969 
Q 1341 3281 1617 3432 
Q 1894 3584 2278 3584 
Q 2916 3584 3314 3078 
Q 3713 2572 3713 1747 
Q 3713 922 3314 415 
Q 2916 -91 2278 -91 
Q 1894 -91 1617 61 
Q 1341 213 1159 525 
z
M 3116 1747 
Q 3116 2381 2855 2742 
Q 2594 3103 2138 3103 
Q 1681 3103 1420 2742 
Q 1159 2381 1159 1747 
Q 1159 1113 1420 752 
Q 1681 391 2138 391 
Q 2594 391 2855 752 
Q 3116 1113 3116 1747 
z
" transform="scale(0.015625)"/>
      <path id="DejaVuSans-6e" d="M 3513 2113 
L 3513 0 
L 2938 0 
L 2938 2094 
Q 2938 2591 2744 2837 
Q 2550 3084 2163 3084 
Q 1697 3084 1428 2787 
Q 1159 2491 1159 1978 
L 1159 0 
L 581 0 
L 581 3500 
L 1159 3500 
L 1159 2956 
Q 1366 3272 1645 3428 
Q 1925 3584 2291 3584 
Q 2894 3584 3203 3211 
Q 3513 2838 3513 2113 
z
" transform="scale(0.015625)"/>
      <path id="DejaVuSans-67" d="M 2906 1791 
Q 2906 2416 2648 2759 
Q 2391 3103 1925 3103 
Q 1463 3103 1205 2759 
Q 947 2416 947 1791 
Q 947 1169 1205 825 
Q 1463 481 1925 481 
Q 2391 481 2648 825 
Q 2906 1169 2906 1791 
z
M 3481 434 
Q 3481 -459 3084 -895 
Q 2688 -1331 1869 -1331 
Q 1566 -1331 1297 -1286 
Q 1028 -1241 775 -1147 
L 775 -588 
Q 1028 -725 1275 -790 
Q 1522 -856 1778 -856 
Q 2344 -856 2625 -561 
Q 2906 -266 2906 331 
L 2906 616 
Q 2728 306 2450 153 
Q 2172 0 1784 0 
Q 1141 0 747 490 
Q 353 981 353 1791 
Q 353 2603 747 3093 
Q 1141 3584 1784 3584 
Q 2172 3584 2450 3431 
Q 2728 3278 2906 2969 
L 2906 3500 
L 3481 3500 
L 3481 434 
z
" transform="scale(0.015625)"/>
      <path id="DejaVuSans-43" d="M 4122 4306 
L 4122 3641 
Q 3803 3938 3442 4084 
Q 3081 4231 2675 4231 
Q 1875 4231 1450 3742 
Q 1025 3253 1025 2328 
Q 1025 1406 1450 917 
Q 1875 428 2675 428 
Q 3081 428 3442 575 
Q 3803 722 4122 1019 
L 4122 359 
Q 3791 134 3420 21 
Q 3050 -91 2638 -91 
Q 1578 -91 968 557 
Q 359 1206 359 2328 
Q 359 3453 968 4101 
Q 1578 4750 2638 4750 
Q 3056 4750 3426 4639 
Q 3797 4528 4122 4306 
z
" transform="scale(0.015625)"/>
      <path id="DejaVuSans-68" d="M 3513 2113 
L 3513 0 
L 2938 0 
L 2938 2094 
Q 2938 2591 2744 2837 
Q 2550 3084 2163 3084 
Q 1697 3084 1428 2787 
Q 1159 2491 1159 1978 
L 1159 0 
L 581 0 
L 581 4863 
L 1159 4863 
L 1159 2956 
Q 1366 3272 1645 3428 
Q 1925 3584 2291 3584 
Q 2894 3584 3203 3211 
Q 3513 2838 3513 2113 
z
" transform="scale(0.015625)"/>
      <path id="DejaVuSans-28" d="M 1984 4856 
Q 1566 4138 1362 3434 
Q 1159 2731 1159 2009 
Q 1159 1288 1364 580 
Q 1569 -128 1984 -844 
L 1484 -844 
Q 1016 -109 783 600 
Q 550 1309 550 2009 
Q 550 2706 781 3412 
Q 1013 4119 1484 4856 
L 1984 4856 
z
" transform="scale(0.015625)"/>
      <path id="DejaVuSans-29" d="M 513 4856 
L 1013 4856 
Q 1481 4119 1714 3412 
Q 1947 2706 1947 2009 
Q 1947 1309 1714 600 
Q 1481 -109 1013 -844 
L 513 -844 
Q 928 -128 1133 580 
Q 1338 1288 1338 2009 
Q 1338 2731 1133 3434 
Q 928 4138 513 4856 
z
" transform="scale(0.015625)"/>
     </defs>
     <use xlink:href="#DejaVuSans-52"/>
     <use xlink:href="#DejaVuSans-65" x="64.982422"/>
     <use xlink:href="#DejaVuSans-63" x="126.505859"/>
     <use xlink:href="#DejaVuSans-65" x="181.486328"/>
     <use xlink:href="#DejaVuSans-69" x="243.009766"/>
     <use xlink:href="#DejaVuSans-76" x="270.792969"/>
     <use xlink:href="#DejaVuSans-65" x="329.972656"/>
     <use xlink:href="#DejaVuSans-72" x="391.496094"/>
     <use xlink:href="#DejaVuSans-20" x="432.609375"/>
     <use xlink:href="#DejaVuSans-4f" x="464.396484"/>
     <use xlink:href="#DejaVuSans-70" x="543.107422"/>
     <use xlink:href="#DejaVuSans-65" x="606.583984"/>
     <use xlink:href="#DejaVuSans-72" x="668.107422"/>
     <use xlink:href="#DejaVuSans-61" x="709.220703"/>
     <use xlink:href="#DejaVuSans-74" x="770.5"/>
     <use xlink:href="#DejaVuSans-69" x="809.708984"/>
     <use xlink:href="#DejaVuSans-6e" x="837.492188"/>
     <use xlink:href="#DejaVuSans-67" x="900.871094"/>
     <use xlink:href="#DejaVuSans-20" x="964.347656"/>
     <use xlink:href="#DejaVuSans-43" x="996.134766"/>
     <use xlink:href="#DejaVuSans-68" x="1065.958984"/>
     <use xlink:href="#DejaVuSans-61" x="1129.337891"/>
     <use xlink:href="#DejaVuSans-72" x="1190.617188"/>
     <use xlink:href="#DejaVuSans-61" x="1231.730469"/>
     <use xlink:href="#DejaVuSans-63" x="1293.009766"/>
     <use xlink:href="#DejaVuSans-74" x="1347.990234"/>
     <use xlink:href="#DejaVuSans-65" x="1387.199219"/>
     <use xlink:href="#DejaVuSans-72" x="1448.722656"/>
     <use xlink:href="#DejaVuSans-69" x="1489.835938"/>
     <use xlink:href="#DejaVuSans-73" x="1517.619141"/>
     <use xlink:href="#DejaVuSans-74" x="1569.71875"/>
     <use xlink:href="#DejaVuSans-69" x="1608.927734"/>
     <use xlink:href="#DejaVuSans-63" x="1636.710938"/>
     <use xlink:href="#DejaVuSans-28" x="1691.691406"/>
     <use xlink:href="#DejaVuSans-52" x="1730.705078"/>
     <use xlink:href="#DejaVuSans-4f" x="1800.1875"/>
     <use xlink:href="#DejaVuSans-43" x="1878.898438"/>
     <use xlink:href="#DejaVuSans-29" x="1948.722656"/>
     <use xlink:href="#DejaVuSans-20" x="1987.736328"/>
     <use xlink:href="#DejaVuSans-63" x="2019.523438"/>
     <use xlink:href="#DejaVuSans-75" x="2074.503906"/>
     <use xlink:href="#DejaVuSans-72" x="2137.882812"/>
     <use xlink:href="#DejaVuSans-76" x="2178.996094"/>
     <use xlink:href="#DejaVuSans-65" x="2238.175781"/>
     <use xlink:href="#DejaVuSans-73" x="2299.699219"/>
    </g>
   </g>
   <g id="legend_1">
    <g id="patch_7">
     <path d="M 267.398125 302.584 
L 407.72 302.584 
Q 409.72 302.584 409.72 300.584 
L 409.72 198.837125 
Q 409.72 196.837125 407.72 196.837125 
L 267.398125 196.837125 
Q 265.398125 196.837125 265.398125 198.837125 
L 265.398125 300.584 
Q 265.398125 302.584 267.398125 302.584 
z
" style="fill: #ffffff; opacity: 0.8; stroke: #cccccc; stroke-linejoin: miter"/>
    </g>
    <g id="line2d_33">
     <path d="M 269.398125 204.935563 
L 279.398125 204.935563 
L 289.398125 204.935563 
" style="fill: none; stroke: #1f77b4; stroke-linecap: square"/>
    </g>
    <g id="text_16">
     <!-- AKIEC(AUC = 0.9789) -->
     <g transform="translate(297.398125 208.435563) scale(0.1 -0.1)">
      <defs>
       <path id="DejaVuSans-41" d="M 2188 4044 
L 1331 1722 
L 3047 1722 
L 2188 4044 
z
M 1831 4666 
L 2547 4666 
L 4325 0 
L 3669 0 
L 3244 1197 
L 1141 1197 
L 716 0 
L 50 0 
L 1831 4666 
z
" transform="scale(0.015625)"/>
       <path id="DejaVuSans-4b" d="M 628 4666 
L 1259 4666 
L 1259 2694 
L 3353 4666 
L 4166 4666 
L 1850 2491 
L 4331 0 
L 3500 0 
L 1259 2247 
L 1259 0 
L 628 0 
L 628 4666 
z
" transform="scale(0.015625)"/>
       <path id="DejaVuSans-49" d="M 628 4666 
L 1259 4666 
L 1259 0 
L 628 0 
L 628 4666 
z
" transform="scale(0.015625)"/>
       <path id="DejaVuSans-45" d="M 628 4666 
L 3578 4666 
L 3578 4134 
L 1259 4134 
L 1259 2753 
L 3481 2753 
L 3481 2222 
L 1259 2222 
L 1259 531 
L 3634 531 
L 3634 0 
L 628 0 
L 628 4666 
z
" transform="scale(0.015625)"/>
       <path id="DejaVuSans-55" d="M 556 4666 
L 1191 4666 
L 1191 1831 
Q 1191 1081 1462 751 
Q 1734 422 2344 422 
Q 2950 422 3222 751 
Q 3494 1081 3494 1831 
L 3494 4666 
L 4128 4666 
L 4128 1753 
Q 4128 841 3676 375 
Q 3225 -91 2344 -91 
Q 1459 -91 1007 375 
Q 556 841 556 1753 
L 556 4666 
z
" transform="scale(0.015625)"/>
       <path id="DejaVuSans-3d" d="M 678 2906 
L 4684 2906 
L 4684 2381 
L 678 2381 
L 678 2906 
z
M 678 1631 
L 4684 1631 
L 4684 1100 
L 678 1100 
L 678 1631 
z
" transform="scale(0.015625)"/>
       <path id="DejaVuSans-39" d="M 703 97 
L 703 672 
Q 941 559 1184 500 
Q 1428 441 1663 441 
Q 2288 441 2617 861 
Q 2947 1281 2994 2138 
Q 2813 1869 2534 1725 
Q 2256 1581 1919 1581 
Q 1219 1581 811 2004 
Q 403 2428 403 3163 
Q 403 3881 828 4315 
Q 1253 4750 1959 4750 
Q 2769 4750 3195 4129 
Q 3622 3509 3622 2328 
Q 3622 1225 3098 567 
Q 2575 -91 1691 -91 
Q 1453 -91 1209 -44 
Q 966 3 703 97 
z
M 1959 2075 
Q 2384 2075 2632 2365 
Q 2881 2656 2881 3163 
Q 2881 3666 2632 3958 
Q 2384 4250 1959 4250 
Q 1534 4250 1286 3958 
Q 1038 3666 1038 3163 
Q 1038 2656 1286 2365 
Q 1534 2075 1959 2075 
z
" transform="scale(0.015625)"/>
       <path id="DejaVuSans-37" d="M 525 4666 
L 3525 4666 
L 3525 4397 
L 1831 0 
L 1172 0 
L 2766 4134 
L 525 4134 
L 525 4666 
z
" transform="scale(0.015625)"/>
      </defs>
      <use xlink:href="#DejaVuSans-41"/>
      <use xlink:href="#DejaVuSans-4b" x="68.408203"/>
      <use xlink:href="#DejaVuSans-49" x="133.984375"/>
      <use xlink:href="#DejaVuSans-45" x="163.476562"/>
      <use xlink:href="#DejaVuSans-43" x="226.660156"/>
      <use xlink:href="#DejaVuSans-28" x="296.484375"/>
      <use xlink:href="#DejaVuSans-41" x="335.498047"/>
      <use xlink:href="#DejaVuSans-55" x="403.90625"/>
      <use xlink:href="#DejaVuSans-43" x="477.099609"/>
      <use xlink:href="#DejaVuSans-20" x="546.923828"/>
      <use xlink:href="#DejaVuSans-3d" x="578.710938"/>
      <use xlink:href="#DejaVuSans-20" x="662.5"/>
      <use xlink:href="#DejaVuSans-30" x="694.287109"/>
      <use xlink:href="#DejaVuSans-2e" x="757.910156"/>
      <use xlink:href="#DejaVuSans-39" x="789.697266"/>
      <use xlink:href="#DejaVuSans-37" x="853.320312"/>
      <use xlink:href="#DejaVuSans-38" x="916.943359"/>
      <use xlink:href="#DejaVuSans-39" x="980.566406"/>
      <use xlink:href="#DejaVuSans-29" x="1044.189453"/>
     </g>
    </g>
    <g id="line2d_34">
     <path d="M 269.398125 219.613688 
L 279.398125 219.613688 
L 289.398125 219.613688 
" style="fill: none; stroke: #ff7f0e; stroke-linecap: square"/>
    </g>
    <g id="text_17">
     <!-- BCC(AUC = 0.9851) -->
     <g transform="translate(297.398125 223.113688) scale(0.1 -0.1)">
      <defs>
       <path id="DejaVuSans-42" d="M 1259 2228 
L 1259 519 
L 2272 519 
Q 2781 519 3026 730 
Q 3272 941 3272 1375 
Q 3272 1813 3026 2020 
Q 2781 2228 2272 2228 
L 1259 2228 
z
M 1259 4147 
L 1259 2741 
L 2194 2741 
Q 2656 2741 2882 2914 
Q 3109 3088 3109 3444 
Q 3109 3797 2882 3972 
Q 2656 4147 2194 4147 
L 1259 4147 
z
M 628 4666 
L 2241 4666 
Q 2963 4666 3353 4366 
Q 3744 4066 3744 3513 
Q 3744 3084 3544 2831 
Q 3344 2578 2956 2516 
Q 3422 2416 3680 2098 
Q 3938 1781 3938 1306 
Q 3938 681 3513 340 
Q 3088 0 2303 0 
L 628 0 
L 628 4666 
z
" transform="scale(0.015625)"/>
       <path id="DejaVuSans-35" d="M 691 4666 
L 3169 4666 
L 3169 4134 
L 1269 4134 
L 1269 2991 
Q 1406 3038 1543 3061 
Q 1681 3084 1819 3084 
Q 2600 3084 3056 2656 
Q 3513 2228 3513 1497 
Q 3513 744 3044 326 
Q 2575 -91 1722 -91 
Q 1428 -91 1123 -41 
Q 819 9 494 109 
L 494 744 
Q 775 591 1075 516 
Q 1375 441 1709 441 
Q 2250 441 2565 725 
Q 2881 1009 2881 1497 
Q 2881 1984 2565 2268 
Q 2250 2553 1709 2553 
Q 1456 2553 1204 2497 
Q 953 2441 691 2322 
L 691 4666 
z
" transform="scale(0.015625)"/>
      </defs>
      <use xlink:href="#DejaVuSans-42"/>
      <use xlink:href="#DejaVuSans-43" x="66.853516"/>
      <use xlink:href="#DejaVuSans-43" x="136.677734"/>
      <use xlink:href="#DejaVuSans-28" x="206.501953"/>
      <use xlink:href="#DejaVuSans-41" x="245.515625"/>
      <use xlink:href="#DejaVuSans-55" x="313.923828"/>
      <use xlink:href="#DejaVuSans-43" x="387.117188"/>
      <use xlink:href="#DejaVuSans-20" x="456.941406"/>
      <use xlink:href="#DejaVuSans-3d" x="488.728516"/>
      <use xlink:href="#DejaVuSans-20" x="572.517578"/>
      <use xlink:href="#DejaVuSans-30" x="604.304688"/>
      <use xlink:href="#DejaVuSans-2e" x="667.927734"/>
      <use xlink:href="#DejaVuSans-39" x="699.714844"/>
      <use xlink:href="#DejaVuSans-38" x="763.337891"/>
      <use xlink:href="#DejaVuSans-35" x="826.960938"/>
      <use xlink:href="#DejaVuSans-31" x="890.583984"/>
      <use xlink:href="#DejaVuSans-29" x="954.207031"/>
     </g>
    </g>
    <g id="line2d_35">
     <path d="M 269.398125 234.291812 
L 279.398125 234.291812 
L 289.398125 234.291812 
" style="fill: none; stroke: #2ca02c; stroke-linecap: square"/>
    </g>
    <g id="text_18">
     <!-- BKL(AUC = 0.9654) -->
     <g transform="translate(297.398125 237.791812) scale(0.1 -0.1)">
      <defs>
       <path id="DejaVuSans-4c" d="M 628 4666 
L 1259 4666 
L 1259 531 
L 3531 531 
L 3531 0 
L 628 0 
L 628 4666 
z
" transform="scale(0.015625)"/>
      </defs>
      <use xlink:href="#DejaVuSans-42"/>
      <use xlink:href="#DejaVuSans-4b" x="68.603516"/>
      <use xlink:href="#DejaVuSans-4c" x="134.179688"/>
      <use xlink:href="#DejaVuSans-28" x="189.892578"/>
      <use xlink:href="#DejaVuSans-41" x="228.90625"/>
      <use xlink:href="#DejaVuSans-55" x="297.314453"/>
      <use xlink:href="#DejaVuSans-43" x="370.507812"/>
      <use xlink:href="#DejaVuSans-20" x="440.332031"/>
      <use xlink:href="#DejaVuSans-3d" x="472.119141"/>
      <use xlink:href="#DejaVuSans-20" x="555.908203"/>
      <use xlink:href="#DejaVuSans-30" x="587.695312"/>
      <use xlink:href="#DejaVuSans-2e" x="651.318359"/>
      <use xlink:href="#DejaVuSans-39" x="683.105469"/>
      <use xlink:href="#DejaVuSans-36" x="746.728516"/>
      <use xlink:href="#DejaVuSans-35" x="810.351562"/>
      <use xlink:href="#DejaVuSans-34" x="873.974609"/>
      <use xlink:href="#DejaVuSans-29" x="937.597656"/>
     </g>
    </g>
    <g id="line2d_36">
     <path d="M 269.398125 248.969938 
L 279.398125 248.969938 
L 289.398125 248.969938 
" style="fill: none; stroke: #d62728; stroke-linecap: square"/>
    </g>
    <g id="text_19">
     <!-- DF(AUC = 0.9795) -->
     <g transform="translate(297.398125 252.469938) scale(0.1 -0.1)">
      <defs>
       <path id="DejaVuSans-44" d="M 1259 4147 
L 1259 519 
L 2022 519 
Q 2988 519 3436 956 
Q 3884 1394 3884 2338 
Q 3884 3275 3436 3711 
Q 2988 4147 2022 4147 
L 1259 4147 
z
M 628 4666 
L 1925 4666 
Q 3281 4666 3915 4102 
Q 4550 3538 4550 2338 
Q 4550 1131 3912 565 
Q 3275 0 1925 0 
L 628 0 
L 628 4666 
z
" transform="scale(0.015625)"/>
      </defs>
      <use xlink:href="#DejaVuSans-44"/>
      <use xlink:href="#DejaVuSans-46" x="77.001953"/>
      <use xlink:href="#DejaVuSans-28" x="134.521484"/>
      <use xlink:href="#DejaVuSans-41" x="173.535156"/>
      <use xlink:href="#DejaVuSans-55" x="241.943359"/>
      <use xlink:href="#DejaVuSans-43" x="315.136719"/>
      <use xlink:href="#DejaVuSans-20" x="384.960938"/>
      <use xlink:href="#DejaVuSans-3d" x="416.748047"/>
      <use xlink:href="#DejaVuSans-20" x="500.537109"/>
      <use xlink:href="#DejaVuSans-30" x="532.324219"/>
      <use xlink:href="#DejaVuSans-2e" x="595.947266"/>
      <use xlink:href="#DejaVuSans-39" x="627.734375"/>
      <use xlink:href="#DejaVuSans-37" x="691.357422"/>
      <use xlink:href="#DejaVuSans-39" x="754.980469"/>
      <use xlink:href="#DejaVuSans-35" x="818.603516"/>
      <use xlink:href="#DejaVuSans-29" x="882.226562"/>
     </g>
    </g>
    <g id="line2d_37">
     <path d="M 269.398125 263.648063 
L 279.398125 263.648063 
L 289.398125 263.648063 
" style="fill: none; stroke: #9467bd; stroke-linecap: square"/>
    </g>
    <g id="text_20">
     <!-- MEL(AUC = 0.9379) -->
     <g transform="translate(297.398125 267.148063) scale(0.1 -0.1)">
      <defs>
       <path id="DejaVuSans-4d" d="M 628 4666 
L 1569 4666 
L 2759 1491 
L 3956 4666 
L 4897 4666 
L 4897 0 
L 4281 0 
L 4281 4097 
L 3078 897 
L 2444 897 
L 1241 4097 
L 1241 0 
L 628 0 
L 628 4666 
z
" transform="scale(0.015625)"/>
       <path id="DejaVuSans-33" d="M 2597 2516 
Q 3050 2419 3304 2112 
Q 3559 1806 3559 1356 
Q 3559 666 3084 287 
Q 2609 -91 1734 -91 
Q 1441 -91 1130 -33 
Q 819 25 488 141 
L 488 750 
Q 750 597 1062 519 
Q 1375 441 1716 441 
Q 2309 441 2620 675 
Q 2931 909 2931 1356 
Q 2931 1769 2642 2001 
Q 2353 2234 1838 2234 
L 1294 2234 
L 1294 2753 
L 1863 2753 
Q 2328 2753 2575 2939 
Q 2822 3125 2822 3475 
Q 2822 3834 2567 4026 
Q 2313 4219 1838 4219 
Q 1578 4219 1281 4162 
Q 984 4106 628 3988 
L 628 4550 
Q 988 4650 1302 4700 
Q 1616 4750 1894 4750 
Q 2613 4750 3031 4423 
Q 3450 4097 3450 3541 
Q 3450 3153 3228 2886 
Q 3006 2619 2597 2516 
z
" transform="scale(0.015625)"/>
      </defs>
      <use xlink:href="#DejaVuSans-4d"/>
      <use xlink:href="#DejaVuSans-45" x="86.279297"/>
      <use xlink:href="#DejaVuSans-4c" x="149.462891"/>
      <use xlink:href="#DejaVuSans-28" x="205.175781"/>
      <use xlink:href="#DejaVuSans-41" x="244.189453"/>
      <use xlink:href="#DejaVuSans-55" x="312.597656"/>
      <use xlink:href="#DejaVuSans-43" x="385.791016"/>
      <use xlink:href="#DejaVuSans-20" x="455.615234"/>
      <use xlink:href="#DejaVuSans-3d" x="487.402344"/>
      <use xlink:href="#DejaVuSans-20" x="571.191406"/>
      <use xlink:href="#DejaVuSans-30" x="602.978516"/>
      <use xlink:href="#DejaVuSans-2e" x="666.601562"/>
      <use xlink:href="#DejaVuSans-39" x="698.388672"/>
      <use xlink:href="#DejaVuSans-33" x="762.011719"/>
      <use xlink:href="#DejaVuSans-37" x="825.634766"/>
      <use xlink:href="#DejaVuSans-39" x="889.257812"/>
      <use xlink:href="#DejaVuSans-29" x="952.880859"/>
     </g>
    </g>
    <g id="line2d_38">
     <path d="M 269.398125 278.326188 
L 279.398125 278.326188 
L 289.398125 278.326188 
" style="fill: none; stroke: #8c564b; stroke-linecap: square"/>
    </g>
    <g id="text_21">
     <!-- NV(AUC = 0.9653) -->
     <g transform="translate(297.398125 281.826188) scale(0.1 -0.1)">
      <defs>
       <path id="DejaVuSans-4e" d="M 628 4666 
L 1478 4666 
L 3547 763 
L 3547 4666 
L 4159 4666 
L 4159 0 
L 3309 0 
L 1241 3903 
L 1241 0 
L 628 0 
L 628 4666 
z
" transform="scale(0.015625)"/>
       <path id="DejaVuSans-56" d="M 1831 0 
L 50 4666 
L 709 4666 
L 2188 738 
L 3669 4666 
L 4325 4666 
L 2547 0 
L 1831 0 
z
" transform="scale(0.015625)"/>
      </defs>
      <use xlink:href="#DejaVuSans-4e"/>
      <use xlink:href="#DejaVuSans-56" x="74.804688"/>
      <use xlink:href="#DejaVuSans-28" x="143.212891"/>
      <use xlink:href="#DejaVuSans-41" x="182.226562"/>
      <use xlink:href="#DejaVuSans-55" x="250.634766"/>
      <use xlink:href="#DejaVuSans-43" x="323.828125"/>
      <use xlink:href="#DejaVuSans-20" x="393.652344"/>
      <use xlink:href="#DejaVuSans-3d" x="425.439453"/>
      <use xlink:href="#DejaVuSans-20" x="509.228516"/>
      <use xlink:href="#DejaVuSans-30" x="541.015625"/>
      <use xlink:href="#DejaVuSans-2e" x="604.638672"/>
      <use xlink:href="#DejaVuSans-39" x="636.425781"/>
      <use xlink:href="#DejaVuSans-36" x="700.048828"/>
      <use xlink:href="#DejaVuSans-35" x="763.671875"/>
      <use xlink:href="#DejaVuSans-33" x="827.294922"/>
      <use xlink:href="#DejaVuSans-29" x="890.917969"/>
     </g>
    </g>
    <g id="line2d_39">
     <path d="M 269.398125 293.004312 
L 279.398125 293.004312 
L 289.398125 293.004312 
" style="fill: none; stroke: #e377c2; stroke-linecap: square"/>
    </g>
    <g id="text_22">
     <!-- VASC(AUC = 0.9996) -->
     <g transform="translate(297.398125 296.504312) scale(0.1 -0.1)">
      <defs>
       <path id="DejaVuSans-53" d="M 3425 4513 
L 3425 3897 
Q 3066 4069 2747 4153 
Q 2428 4238 2131 4238 
Q 1616 4238 1336 4038 
Q 1056 3838 1056 3469 
Q 1056 3159 1242 3001 
Q 1428 2844 1947 2747 
L 2328 2669 
Q 3034 2534 3370 2195 
Q 3706 1856 3706 1288 
Q 3706 609 3251 259 
Q 2797 -91 1919 -91 
Q 1588 -91 1214 -16 
Q 841 59 441 206 
L 441 856 
Q 825 641 1194 531 
Q 1563 422 1919 422 
Q 2459 422 2753 634 
Q 3047 847 3047 1241 
Q 3047 1584 2836 1778 
Q 2625 1972 2144 2069 
L 1759 2144 
Q 1053 2284 737 2584 
Q 422 2884 422 3419 
Q 422 4038 858 4394 
Q 1294 4750 2059 4750 
Q 2388 4750 2728 4690 
Q 3069 4631 3425 4513 
z
" transform="scale(0.015625)"/>
      </defs>
      <use xlink:href="#DejaVuSans-56"/>
      <use xlink:href="#DejaVuSans-41" x="62.033203"/>
      <use xlink:href="#DejaVuSans-53" x="130.441406"/>
      <use xlink:href="#DejaVuSans-43" x="193.917969"/>
      <use xlink:href="#DejaVuSans-28" x="263.742188"/>
      <use xlink:href="#DejaVuSans-41" x="302.755859"/>
      <use xlink:href="#DejaVuSans-55" x="371.164062"/>
      <use xlink:href="#DejaVuSans-43" x="444.357422"/>
      <use xlink:href="#DejaVuSans-20" x="514.181641"/>
      <use xlink:href="#DejaVuSans-3d" x="545.96875"/>
      <use xlink:href="#DejaVuSans-20" x="629.757812"/>
      <use xlink:href="#DejaVuSans-30" x="661.544922"/>
      <use xlink:href="#DejaVuSans-2e" x="725.167969"/>
      <use xlink:href="#DejaVuSans-39" x="756.955078"/>
      <use xlink:href="#DejaVuSans-39" x="820.578125"/>
      <use xlink:href="#DejaVuSans-39" x="884.201172"/>
      <use xlink:href="#DejaVuSans-36" x="947.824219"/>
      <use xlink:href="#DejaVuSans-29" x="1011.447266"/>
     </g>
    </g>
   </g>
  </g>
 </g>
 <defs>
  <clipPath id="p0eabcbb11a">
   <rect x="57.6" y="41.472" width="357.12" height="266.112"/>
  </clipPath>
 </defs>
</svg>
